<svg width="187" height="99" viewBox="0 0 187 99" fill="none" xmlns="http://www.w3.org/2000/svg">
<g filter="url(#filter0_f_181_8551)">
<ellipse cx="143.472" cy="48.2092" rx="9.80672" ry="8.25828" transform="rotate(1.07834 143.472 48.2092)" fill="#3642CA"/>
</g>
<path d="M17.0952 84.5484C16.6632 87.5142 16.4303 90.5229 16.4045 93.5548L16.6847 93.5572C16.6831 93.7448 16.6823 93.9325 16.6823 94.1203H17.198C17.198 93.9341 17.1988 93.748 17.2003 93.562L17.4805 93.5644C17.5058 90.5838 17.7348 87.6259 18.1595 84.7103L17.8823 84.6699C17.9359 84.3016 17.9927 83.934 18.0526 83.5671L18.3291 83.6122C18.8077 80.6777 19.4852 77.7888 20.3532 74.9657L20.0854 74.8833C20.1947 74.5278 20.3071 74.1733 20.4224 73.8198L20.6887 73.9067C21.609 71.0865 22.7207 68.3352 24.0156 65.6731L23.7636 65.5506C23.9263 65.2162 24.0919 64.8831 24.2603 64.5515L24.5101 64.6784C25.8504 62.0396 27.3728 59.4926 29.069 57.0579L28.8391 56.8977C29.0517 56.5926 29.267 56.2893 29.4849 55.9877L29.712 56.1518C31.4411 53.7597 33.341 51.481 35.4034 49.3358L35.2015 49.1416C35.3304 49.0075 35.4599 48.874 35.5901 48.7409C35.7186 48.6096 35.8476 48.4789 35.977 48.3489L36.1756 48.5466C38.2523 46.4606 40.4569 44.5373 42.7704 42.7847L42.6012 42.5614C42.8939 42.3397 43.1883 42.1207 43.4844 41.9044L43.6497 42.1306C46.0196 40.3999 48.4986 38.8452 51.0671 37.4749L50.9352 37.2277C51.259 37.055 51.5841 36.8852 51.9107 36.7183L52.0382 36.9678C54.6438 35.6363 57.3374 34.4924 60.099 33.5447L60.008 33.2797C60.355 33.1606 60.703 33.0446 61.0521 32.9317L61.1383 33.1983C63.9141 32.3006 66.7552 31.5997 69.6416 31.1041L69.5942 30.8279C69.9556 30.7659 70.3178 30.707 70.6807 30.6514L70.7231 30.9283C73.5971 30.4876 76.5131 30.25 79.4518 30.2237L79.4493 29.9436C79.6328 29.9419 79.8163 29.9411 80 29.9411C80.1837 29.9411 80.3673 29.9419 80.5508 29.9436L80.5482 30.2237C83.4869 30.25 86.4029 30.4876 89.2769 30.9283L89.3193 30.6514C89.6822 30.707 90.0444 30.7659 90.4059 30.8279L90.3584 31.1041C93.2448 31.5997 96.0859 32.3006 98.8617 33.1983L98.9479 32.9317C99.297 33.0446 99.645 33.1606 99.992 33.2797L99.901 33.5447C102.663 34.4924 105.356 35.6363 107.962 36.9678L108.089 36.7183C108.416 36.8852 108.741 37.055 109.065 37.2277L108.933 37.4749C111.501 38.8452 113.98 40.3999 116.35 42.1307L116.516 41.9044C116.812 42.1207 117.106 42.3397 117.399 42.5614L117.23 42.7847C119.543 44.5373 121.748 46.4606 123.824 48.5466L124.023 48.3489C124.152 48.4789 124.281 48.6096 124.41 48.7409C124.54 48.874 124.67 49.0075 124.799 49.1416L124.597 49.3358C126.659 51.481 128.559 53.7597 130.288 56.1518L130.515 55.9877C130.733 56.2893 130.948 56.5926 131.161 56.8977L130.931 57.0579C132.627 59.4926 134.15 62.0396 135.49 64.6784L135.74 64.5515C135.908 64.8831 136.074 65.2162 136.236 65.5506L135.984 65.6732C137.279 68.3352 138.391 71.0865 139.311 73.9067L139.578 73.8198C139.693 74.1733 139.805 74.5278 139.915 74.8833L139.647 74.9657C140.515 77.7888 141.192 80.6777 141.671 83.6122L141.947 83.5671C142.007 83.934 142.064 84.3016 142.118 84.6699L141.84 84.7103C142.265 87.6259 142.494 90.5838 142.52 93.5644L142.8 93.562C142.801 93.748 142.802 93.9341 142.802 94.1203H143.318C143.318 93.9325 143.317 93.7448 143.315 93.5572L143.596 93.5548C143.57 90.5229 143.337 87.5142 142.905 84.5484L142.628 84.5888C142.573 84.2173 142.516 83.8465 142.456 83.4765L142.732 83.4313C142.245 80.4464 141.556 77.5078 140.673 74.636L140.406 74.7183C140.295 74.3598 140.182 74.0022 140.066 73.6458L140.332 73.5589C139.396 70.6901 138.265 67.8914 136.948 65.1836L136.696 65.3061C136.532 64.9688 136.365 64.633 136.195 64.2986L136.445 64.1717C135.082 61.4875 133.533 58.8967 131.808 56.42L131.578 56.5802C131.363 56.2725 131.146 55.9666 130.926 55.6625L131.154 55.4984C129.395 53.0651 127.462 50.7472 125.364 48.5651L125.162 48.7592C125.032 48.624 124.902 48.4893 124.77 48.3552C124.641 48.2228 124.511 48.091 124.38 47.9599L124.579 47.7622C122.466 45.6403 120.224 43.6839 117.87 41.9012L117.701 42.1245C117.406 41.901 117.109 41.6802 116.811 41.4621L116.976 41.2359C114.565 39.4753 112.044 37.8938 109.431 36.5L109.299 36.7472C108.973 36.5731 108.645 36.4019 108.316 36.2337L108.443 35.9842C105.793 34.6298 103.053 33.4662 100.244 32.5022L100.153 32.7672C99.8028 32.6471 99.452 32.5302 99.1001 32.4164L99.1863 32.1498C96.3628 31.2366 93.4728 30.5236 90.5367 30.0195L90.4893 30.2956C90.1249 30.2331 89.7598 30.1738 89.3941 30.1177L89.4365 29.8407C86.5131 29.3925 83.5469 29.1508 80.5577 29.124L80.5552 29.4042C80.3702 29.4025 80.1852 29.4017 80 29.4017C79.8149 29.4017 79.6298 29.4025 79.4448 29.4042L79.4423 29.124C76.4531 29.1508 73.4869 29.3925 70.5635 29.8407L70.6059 30.1177C70.2402 30.1738 69.8751 30.2331 69.5107 30.2956L69.4633 30.0195C66.5272 30.5236 63.6373 31.2366 60.8137 32.1498L60.8999 32.4164C60.548 32.5302 60.1972 32.6471 59.8474 32.7672L59.7565 32.5022C56.9474 33.4662 54.2074 34.6298 51.5569 35.9842L51.6844 36.2337C51.3552 36.4019 51.0274 36.5731 50.701 36.7472L50.5692 36.5C47.9565 37.8938 45.4347 39.4753 43.0241 41.2359L43.1893 41.4621C42.8907 41.6802 42.5939 41.901 42.2988 42.1245L42.1296 41.9012C39.7763 43.6839 37.5338 45.6403 35.4213 47.7622L35.6199 47.9599C35.4893 48.091 35.3593 48.2228 35.2298 48.3551C35.0985 48.4893 34.9678 48.624 34.8378 48.7592L34.6359 48.565C32.5379 50.7472 30.6054 53.0651 28.8465 55.4984L29.0736 55.6625C28.8538 55.9666 28.6367 56.2725 28.4223 56.5802L28.1925 56.42C26.4671 58.8966 24.9185 61.4875 23.5551 64.1717L23.8049 64.2986C23.635 64.633 23.468 64.9688 23.304 65.3061L23.052 65.1836C21.7349 67.8914 20.604 70.6901 19.668 73.5588L19.9343 73.6458C19.818 74.0022 19.7047 74.3597 19.5945 74.7183L19.3267 74.636C18.4437 77.5077 17.7546 80.4463 17.2677 83.4313L17.5442 83.4764C17.4838 83.8465 17.4266 84.2173 17.3725 84.5887L17.0952 84.5484Z" stroke="#7A7A7A" stroke-width="0.560334" stroke-dasharray="1.12 8.97"/>
<path d="M5.34796 98.0539C2.87729 98.2119 0.733017 96.3358 0.714794 93.8602C0.571811 74.4349 7.57154 55.5704 20.4717 40.9076C33.3718 26.2448 51.1909 16.8991 70.4762 14.5664C72.934 14.2692 75.0679 16.157 75.2259 18.6277L75.2368 18.7981C75.3948 21.2688 73.5165 23.385 71.061 23.7003C54.195 25.8665 38.6303 34.0991 27.331 46.9423C16.0317 59.7856 9.84884 76.2721 9.84878 93.2767C9.84877 95.7524 7.98905 97.885 5.51839 98.043L5.34796 98.0539Z" fill="#61278B"/>
<path d="M76.8326 18.5423C76.7278 16.0688 78.6493 13.9654 81.1248 14.0004C96.1463 14.2133 110.802 18.6912 123.377 26.9103C125.449 28.2648 125.867 31.083 124.398 33.0755L124.297 33.2129C122.827 35.2055 120.028 35.6163 117.946 34.2771C107.061 27.277 94.4493 23.4234 81.5114 23.1449C79.0362 23.0916 76.9446 21.1864 76.8398 18.7129L76.8326 18.5423Z" fill="#EE89DF"/>
<path d="M125.82 34.1502C127.336 32.1933 130.161 31.8268 132.029 33.4513C139.13 39.6268 145.076 47.0176 149.586 55.277C150.773 57.4498 149.81 60.1308 147.573 61.1928L147.419 61.266C145.183 62.3279 142.521 61.3676 141.319 59.2036C137.443 52.2288 132.405 45.966 126.423 40.6857C124.566 39.0474 124.199 36.2421 125.715 34.2852L125.82 34.1502Z" fill="#3642CA"/>
<path d="M147.899 61.8883C150.146 60.8493 152.823 61.8248 153.733 64.1271C157.476 73.5938 159.361 83.6935 159.285 93.873C159.266 96.3486 157.122 98.2239 154.651 98.0656L154.481 98.0546C152.01 97.8962 150.151 95.7639 150.151 93.2882C150.152 84.6288 148.55 76.0433 145.425 67.9673C144.532 65.6584 145.497 62.9989 147.744 61.9599L147.899 61.8883Z" fill="#FBDE9D"/>
<circle cx="139.676" cy="48.1729" r="5.60334" fill="#F9F9F9" stroke="#3642CA" stroke-width="4.48267"/>
<defs>
<filter id="filter0_f_181_8551" x="94.4429" y="0.72691" width="98.0592" height="94.9646" filterUnits="userSpaceOnUse" color-interpolation-filters="sRGB">
<feFlood flood-opacity="0" result="BackgroundImageFix"/>
<feBlend mode="normal" in="SourceGraphic" in2="BackgroundImageFix" result="shape"/>
<feGaussianBlur stdDeviation="19.6117" result="effect1_foregroundBlur_181_8551"/>
</filter>
</defs>
</svg>
