<svg width="1200" height="773" viewBox="0 0 1200 773" fill="none" xmlns="http://www.w3.org/2000/svg">
<rect x="-40" y="-14" width="57.2857" height="57.2857" stroke="#61278B" stroke-opacity="0.03" stroke-width="1.14571"/>
<rect x="17.2859" y="-14" width="57.2857" height="57.2857" stroke="#61278B" stroke-opacity="0.03" stroke-width="1.14571"/>
<rect x="74.5714" y="-14" width="57.2857" height="57.2857" stroke="#61278B" stroke-opacity="0.03" stroke-width="1.14571"/>
<rect x="131.857" y="-14" width="57.2857" height="57.2857" stroke="#61278B" stroke-opacity="0.03" stroke-width="1.14571"/>
<rect x="189.143" y="-14" width="57.2857" height="57.2857" stroke="#61278B" stroke-opacity="0.03" stroke-width="1.14571"/>
<rect x="246.429" y="-14" width="57.2857" height="57.2857" stroke="#61278B" stroke-opacity="0.03" stroke-width="1.14571"/>
<rect x="303.714" y="-14" width="57.2857" height="57.2857" stroke="#61278B" stroke-opacity="0.03" stroke-width="1.14571"/>
<rect x="361" y="-14" width="57.2857" height="57.2857" stroke="#61278B" stroke-opacity="0.03" stroke-width="1.14571"/>
<rect x="418.286" y="-14" width="57.2857" height="57.2857" stroke="#61278B" stroke-opacity="0.03" stroke-width="1.14571"/>
<rect x="475.572" y="-14" width="57.2857" height="57.2857" stroke="#61278B" stroke-opacity="0.03" stroke-width="1.14571"/>
<rect x="532.857" y="-14" width="57.2857" height="57.2857" stroke="#61278B" stroke-opacity="0.03" stroke-width="1.14571"/>
<rect x="590.143" y="-14" width="57.2857" height="57.2857" stroke="#61278B" stroke-opacity="0.03" stroke-width="1.14571"/>
<rect x="647.429" y="-14" width="57.2857" height="57.2857" stroke="#61278B" stroke-opacity="0.03" stroke-width="1.14571"/>
<rect x="704.714" y="-14" width="57.2857" height="57.2857" stroke="#61278B" stroke-opacity="0.03" stroke-width="1.14571"/>
<rect x="762" y="-14" width="57.2857" height="57.2857" stroke="#61278B" stroke-opacity="0.03" stroke-width="1.14571"/>
<rect x="819.286" y="-14" width="57.2857" height="57.2857" stroke="#61278B" stroke-opacity="0.03" stroke-width="1.14571"/>
<rect x="876.572" y="-14" width="57.2857" height="57.2857" stroke="#61278B" stroke-opacity="0.03" stroke-width="1.14571"/>
<rect x="933.857" y="-14" width="57.2857" height="57.2857" stroke="#61278B" stroke-opacity="0.03" stroke-width="1.14571"/>
<rect x="991.143" y="-14" width="57.2857" height="57.2857" stroke="#61278B" stroke-opacity="0.03" stroke-width="1.14571"/>
<rect x="1048.43" y="-14" width="57.2857" height="57.2857" stroke="#61278B" stroke-opacity="0.03" stroke-width="1.14571"/>
<rect x="1105.71" y="-14" width="57.2857" height="57.2857" stroke="#61278B" stroke-opacity="0.03" stroke-width="1.14571"/>
<rect x="-40" y="47.6924" width="57.2857" height="57.2857" stroke="#61278B" stroke-opacity="0.03" stroke-width="1.14571"/>
<rect x="17.2859" y="47.6924" width="57.2857" height="57.2857" stroke="#61278B" stroke-opacity="0.03" stroke-width="1.14571"/>
<rect x="74.5714" y="47.6924" width="57.2857" height="57.2857" fill="#61278B" fill-opacity="0.02" stroke="#61278B" stroke-opacity="0.03" stroke-width="1.14571"/>
<rect x="131.857" y="47.6924" width="57.2857" height="57.2857" stroke="#61278B" stroke-opacity="0.03" stroke-width="1.14571"/>
<rect x="189.143" y="47.6924" width="57.2857" height="57.2857" stroke="#61278B" stroke-opacity="0.03" stroke-width="1.14571"/>
<rect x="246.429" y="47.6924" width="57.2857" height="57.2857" stroke="#61278B" stroke-opacity="0.03" stroke-width="1.14571"/>
<rect x="303.714" y="47.6924" width="57.2857" height="57.2857" stroke="#61278B" stroke-opacity="0.03" stroke-width="1.14571"/>
<rect x="361" y="47.6924" width="57.2857" height="57.2857" stroke="#61278B" stroke-opacity="0.03" stroke-width="1.14571"/>
<rect x="418.286" y="47.6924" width="57.2857" height="57.2857" stroke="#61278B" stroke-opacity="0.03" stroke-width="1.14571"/>
<rect x="475.572" y="47.6924" width="57.2857" height="57.2857" fill="#61278B" fill-opacity="0.02" stroke="#61278B" stroke-opacity="0.03" stroke-width="1.14571"/>
<rect x="532.857" y="47.6924" width="57.2857" height="57.2857" stroke="#61278B" stroke-opacity="0.03" stroke-width="1.14571"/>
<rect x="590.143" y="47.6924" width="57.2857" height="57.2857" stroke="#61278B" stroke-opacity="0.03" stroke-width="1.14571"/>
<rect x="647.429" y="47.6924" width="57.2857" height="57.2857" stroke="#61278B" stroke-opacity="0.03" stroke-width="1.14571"/>
<rect x="704.714" y="47.6924" width="57.2857" height="57.2857" stroke="#61278B" stroke-opacity="0.03" stroke-width="1.14571"/>
<rect x="762" y="47.6924" width="57.2857" height="57.2857" stroke="#61278B" stroke-opacity="0.03" stroke-width="1.14571"/>
<rect x="819.286" y="47.6924" width="57.2857" height="57.2857" stroke="#61278B" stroke-opacity="0.03" stroke-width="1.14571"/>
<rect x="876.572" y="47.6924" width="57.2857" height="57.2857" stroke="#61278B" stroke-opacity="0.03" stroke-width="1.14571"/>
<rect x="933.857" y="47.6924" width="57.2857" height="57.2857" stroke="#61278B" stroke-opacity="0.03" stroke-width="1.14571"/>
<rect x="991.143" y="47.6924" width="57.2857" height="57.2857" stroke="#61278B" stroke-opacity="0.03" stroke-width="1.14571"/>
<rect x="1048.43" y="47.6924" width="57.2857" height="57.2857" stroke="#61278B" stroke-opacity="0.03" stroke-width="1.14571"/>
<rect x="1105.71" y="47.6924" width="57.2857" height="57.2857" stroke="#61278B" stroke-opacity="0.03" stroke-width="1.14571"/>
<rect x="-40" y="109.385" width="57.2857" height="57.2857" stroke="#61278B" stroke-opacity="0.03" stroke-width="1.14571"/>
<rect x="17.2859" y="109.385" width="57.2857" height="57.2857" stroke="#61278B" stroke-opacity="0.03" stroke-width="1.14571"/>
<rect x="74.5714" y="109.385" width="57.2857" height="57.2857" stroke="#61278B" stroke-opacity="0.03" stroke-width="1.14571"/>
<rect x="131.857" y="109.385" width="57.2857" height="57.2857" stroke="#61278B" stroke-opacity="0.03" stroke-width="1.14571"/>
<rect x="189.143" y="109.385" width="57.2857" height="57.2857" stroke="#61278B" stroke-opacity="0.03" stroke-width="1.14571"/>
<rect x="246.429" y="109.385" width="57.2857" height="57.2857" stroke="#61278B" stroke-opacity="0.03" stroke-width="1.14571"/>
<rect x="303.714" y="109.385" width="57.2857" height="57.2857" stroke="#61278B" stroke-opacity="0.03" stroke-width="1.14571"/>
<rect x="361" y="109.385" width="57.2857" height="57.2857" stroke="#61278B" stroke-opacity="0.03" stroke-width="1.14571"/>
<rect x="418.286" y="109.385" width="57.2857" height="57.2857" stroke="#61278B" stroke-opacity="0.03" stroke-width="1.14571"/>
<rect x="475.572" y="109.385" width="57.2857" height="57.2857" stroke="#61278B" stroke-opacity="0.03" stroke-width="1.14571"/>
<rect x="532.857" y="109.385" width="57.2857" height="57.2857" stroke="#61278B" stroke-opacity="0.03" stroke-width="1.14571"/>
<rect x="590.143" y="109.385" width="57.2857" height="57.2857" stroke="#61278B" stroke-opacity="0.03" stroke-width="1.14571"/>
<rect x="647.429" y="109.385" width="57.2857" height="57.2857" stroke="#61278B" stroke-opacity="0.03" stroke-width="1.14571"/>
<rect x="704.714" y="109.385" width="57.2857" height="57.2857" stroke="#61278B" stroke-opacity="0.03" stroke-width="1.14571"/>
<rect x="762" y="109.385" width="57.2857" height="57.2857" stroke="#61278B" stroke-opacity="0.03" stroke-width="1.14571"/>
<rect x="819.286" y="109.385" width="57.2857" height="57.2857" stroke="#61278B" stroke-opacity="0.03" stroke-width="1.14571"/>
<rect x="876.572" y="109.385" width="57.2857" height="57.2857" fill="#61278B" fill-opacity="0.02" stroke="#61278B" stroke-opacity="0.03" stroke-width="1.14571"/>
<rect x="933.857" y="109.385" width="57.2857" height="57.2857" stroke="#61278B" stroke-opacity="0.03" stroke-width="1.14571"/>
<rect x="991.143" y="109.385" width="57.2857" height="57.2857" stroke="#61278B" stroke-opacity="0.03" stroke-width="1.14571"/>
<rect x="1048.43" y="109.385" width="57.2857" height="57.2857" stroke="#61278B" stroke-opacity="0.03" stroke-width="1.14571"/>
<rect x="1105.71" y="109.385" width="57.2857" height="57.2857" stroke="#61278B" stroke-opacity="0.03" stroke-width="1.14571"/>
<rect x="-40" y="171.077" width="57.2857" height="57.2857" stroke="#61278B" stroke-opacity="0.03" stroke-width="1.14571"/>
<rect x="17.2859" y="171.077" width="57.2857" height="57.2857" stroke="#61278B" stroke-opacity="0.03" stroke-width="1.14571"/>
<rect x="74.5714" y="171.077" width="57.2857" height="57.2857" stroke="#61278B" stroke-opacity="0.03" stroke-width="1.14571"/>
<rect x="131.857" y="171.077" width="57.2857" height="57.2857" stroke="#61278B" stroke-opacity="0.03" stroke-width="1.14571"/>
<rect x="189.143" y="171.077" width="57.2857" height="57.2857" stroke="#61278B" stroke-opacity="0.03" stroke-width="1.14571"/>
<rect x="246.429" y="171.077" width="57.2857" height="57.2857" stroke="#61278B" stroke-opacity="0.03" stroke-width="1.14571"/>
<rect x="303.714" y="171.077" width="57.2857" height="57.2857" stroke="#61278B" stroke-opacity="0.03" stroke-width="1.14571"/>
<rect x="361" y="171.077" width="57.2857" height="57.2857" stroke="#61278B" stroke-opacity="0.03" stroke-width="1.14571"/>
<rect x="418.286" y="171.077" width="57.2857" height="57.2857" stroke="#61278B" stroke-opacity="0.03" stroke-width="1.14571"/>
<rect x="475.572" y="171.077" width="57.2857" height="57.2857" stroke="#61278B" stroke-opacity="0.03" stroke-width="1.14571"/>
<rect x="532.857" y="171.077" width="57.2857" height="57.2857" stroke="#61278B" stroke-opacity="0.03" stroke-width="1.14571"/>
<rect x="590.143" y="171.077" width="57.2857" height="57.2857" stroke="#61278B" stroke-opacity="0.03" stroke-width="1.14571"/>
<rect x="647.429" y="171.077" width="57.2857" height="57.2857" stroke="#61278B" stroke-opacity="0.03" stroke-width="1.14571"/>
<rect x="704.714" y="171.077" width="57.2857" height="57.2857" stroke="#61278B" stroke-opacity="0.03" stroke-width="1.14571"/>
<rect x="762" y="171.077" width="57.2857" height="57.2857" stroke="#61278B" stroke-opacity="0.03" stroke-width="1.14571"/>
<rect x="819.286" y="171.077" width="57.2857" height="57.2857" stroke="#61278B" stroke-opacity="0.03" stroke-width="1.14571"/>
<rect x="876.572" y="171.077" width="57.2857" height="57.2857" stroke="#61278B" stroke-opacity="0.03" stroke-width="1.14571"/>
<rect x="933.857" y="171.077" width="57.2857" height="57.2857" stroke="#61278B" stroke-opacity="0.03" stroke-width="1.14571"/>
<rect x="991.143" y="171.077" width="57.2857" height="57.2857" stroke="#61278B" stroke-opacity="0.03" stroke-width="1.14571"/>
<rect x="1048.43" y="171.077" width="57.2857" height="57.2857" stroke="#61278B" stroke-opacity="0.03" stroke-width="1.14571"/>
<rect x="1105.71" y="171.077" width="57.2857" height="57.2857" stroke="#61278B" stroke-opacity="0.03" stroke-width="1.14571"/>
<rect x="-40" y="232.769" width="57.2857" height="57.2857" stroke="#61278B" stroke-opacity="0.03" stroke-width="1.14571"/>
<rect x="17.2859" y="232.769" width="57.2857" height="57.2857" stroke="#61278B" stroke-opacity="0.03" stroke-width="1.14571"/>
<rect x="74.5714" y="232.769" width="57.2857" height="57.2857" stroke="#61278B" stroke-opacity="0.03" stroke-width="1.14571"/>
<rect x="131.857" y="232.769" width="57.2857" height="57.2857" fill="#61278B" fill-opacity="0.02" stroke="#61278B" stroke-opacity="0.03" stroke-width="1.14571"/>
<rect x="189.143" y="232.769" width="57.2857" height="57.2857" stroke="#61278B" stroke-opacity="0.03" stroke-width="1.14571"/>
<rect x="246.429" y="232.769" width="57.2857" height="57.2857" stroke="#61278B" stroke-opacity="0.03" stroke-width="1.14571"/>
<rect x="303.714" y="232.769" width="57.2857" height="57.2857" stroke="#61278B" stroke-opacity="0.03" stroke-width="1.14571"/>
<rect x="361" y="232.769" width="57.2857" height="57.2857" stroke="#61278B" stroke-opacity="0.03" stroke-width="1.14571"/>
<rect x="418.286" y="232.769" width="57.2857" height="57.2857" stroke="#61278B" stroke-opacity="0.03" stroke-width="1.14571"/>
<rect x="475.572" y="232.769" width="57.2857" height="57.2857" stroke="#61278B" stroke-opacity="0.03" stroke-width="1.14571"/>
<rect x="532.857" y="232.769" width="57.2857" height="57.2857" stroke="#61278B" stroke-opacity="0.03" stroke-width="1.14571"/>
<rect x="590.143" y="232.769" width="57.2857" height="57.2857" stroke="#61278B" stroke-opacity="0.03" stroke-width="1.14571"/>
<rect x="647.429" y="232.769" width="57.2857" height="57.2857" fill="#61278B" fill-opacity="0.02" stroke="#61278B" stroke-opacity="0.03" stroke-width="1.14571"/>
<rect x="704.714" y="232.769" width="57.2857" height="57.2857" stroke="#61278B" stroke-opacity="0.03" stroke-width="1.14571"/>
<rect x="762" y="232.769" width="57.2857" height="57.2857" stroke="#61278B" stroke-opacity="0.03" stroke-width="1.14571"/>
<rect x="819.286" y="232.769" width="57.2857" height="57.2857" stroke="#61278B" stroke-opacity="0.03" stroke-width="1.14571"/>
<rect x="876.572" y="232.769" width="57.2857" height="57.2857" stroke="#61278B" stroke-opacity="0.03" stroke-width="1.14571"/>
<rect x="933.857" y="232.769" width="57.2857" height="57.2857" stroke="#61278B" stroke-opacity="0.03" stroke-width="1.14571"/>
<rect x="991.143" y="232.769" width="57.2857" height="57.2857" stroke="#61278B" stroke-opacity="0.03" stroke-width="1.14571"/>
<rect x="1048.43" y="232.769" width="57.2857" height="57.2857" stroke="#61278B" stroke-opacity="0.03" stroke-width="1.14571"/>
<rect x="1105.71" y="232.769" width="57.2857" height="57.2857" stroke="#61278B" stroke-opacity="0.03" stroke-width="1.14571"/>
<rect x="-40" y="294.461" width="57.2857" height="57.2857" stroke="#61278B" stroke-opacity="0.03" stroke-width="1.14571"/>
<rect x="17.2859" y="294.461" width="57.2857" height="57.2857" stroke="#61278B" stroke-opacity="0.03" stroke-width="1.14571"/>
<rect x="74.5714" y="294.461" width="57.2857" height="57.2857" stroke="#61278B" stroke-opacity="0.03" stroke-width="1.14571"/>
<rect x="131.857" y="294.461" width="57.2857" height="57.2857" stroke="#61278B" stroke-opacity="0.03" stroke-width="1.14571"/>
<rect x="189.143" y="294.461" width="57.2857" height="57.2857" stroke="#61278B" stroke-opacity="0.03" stroke-width="1.14571"/>
<rect x="246.429" y="294.461" width="57.2857" height="57.2857" stroke="#61278B" stroke-opacity="0.03" stroke-width="1.14571"/>
<rect x="303.714" y="294.461" width="57.2857" height="57.2857" stroke="#61278B" stroke-opacity="0.03" stroke-width="1.14571"/>
<rect x="361" y="294.461" width="57.2857" height="57.2857" stroke="#61278B" stroke-opacity="0.03" stroke-width="1.14571"/>
<rect x="418.286" y="294.461" width="57.2857" height="57.2857" stroke="#61278B" stroke-opacity="0.03" stroke-width="1.14571"/>
<rect x="475.572" y="294.461" width="57.2857" height="57.2857" stroke="#61278B" stroke-opacity="0.03" stroke-width="1.14571"/>
<rect x="532.857" y="294.461" width="57.2857" height="57.2857" stroke="#61278B" stroke-opacity="0.03" stroke-width="1.14571"/>
<rect x="590.143" y="294.461" width="57.2857" height="57.2857" stroke="#61278B" stroke-opacity="0.03" stroke-width="1.14571"/>
<rect x="647.429" y="294.461" width="57.2857" height="57.2857" stroke="#61278B" stroke-opacity="0.03" stroke-width="1.14571"/>
<rect x="704.714" y="294.461" width="57.2857" height="57.2857" stroke="#61278B" stroke-opacity="0.03" stroke-width="1.14571"/>
<rect x="762" y="294.461" width="57.2857" height="57.2857" stroke="#61278B" stroke-opacity="0.03" stroke-width="1.14571"/>
<rect x="819.286" y="294.461" width="57.2857" height="57.2857" stroke="#61278B" stroke-opacity="0.03" stroke-width="1.14571"/>
<rect x="876.572" y="294.461" width="57.2857" height="57.2857" stroke="#61278B" stroke-opacity="0.03" stroke-width="1.14571"/>
<rect x="933.857" y="294.461" width="57.2857" height="57.2857" stroke="#61278B" stroke-opacity="0.03" stroke-width="1.14571"/>
<rect x="991.143" y="294.461" width="57.2857" height="57.2857" fill="#61278B" fill-opacity="0.02" stroke="#61278B" stroke-opacity="0.03" stroke-width="1.14571"/>
<rect x="1048.43" y="294.461" width="57.2857" height="57.2857" stroke="#61278B" stroke-opacity="0.03" stroke-width="1.14571"/>
<rect x="1105.71" y="294.461" width="57.2857" height="57.2857" stroke="#61278B" stroke-opacity="0.03" stroke-width="1.14571"/>
<rect x="-40" y="356.154" width="57.2857" height="57.2857" stroke="#61278B" stroke-opacity="0.03" stroke-width="1.14571"/>
<rect x="17.2859" y="356.154" width="57.2857" height="57.2857" stroke="#61278B" stroke-opacity="0.03" stroke-width="1.14571"/>
<rect x="74.5714" y="356.154" width="57.2857" height="57.2857" stroke="#61278B" stroke-opacity="0.03" stroke-width="1.14571"/>
<rect x="131.857" y="356.154" width="57.2857" height="57.2857" stroke="#61278B" stroke-opacity="0.03" stroke-width="1.14571"/>
<rect x="189.143" y="356.154" width="57.2857" height="57.2857" stroke="#61278B" stroke-opacity="0.03" stroke-width="1.14571"/>
<rect x="246.429" y="356.154" width="57.2857" height="57.2857" stroke="#61278B" stroke-opacity="0.03" stroke-width="1.14571"/>
<rect x="303.714" y="356.154" width="57.2857" height="57.2857" stroke="#61278B" stroke-opacity="0.03" stroke-width="1.14571"/>
<rect x="361" y="356.154" width="57.2857" height="57.2857" stroke="#61278B" stroke-opacity="0.03" stroke-width="1.14571"/>
<rect x="418.286" y="356.154" width="57.2857" height="57.2857" stroke="#61278B" stroke-opacity="0.03" stroke-width="1.14571"/>
<rect x="475.572" y="356.154" width="57.2857" height="57.2857" stroke="#61278B" stroke-opacity="0.03" stroke-width="1.14571"/>
<rect x="532.857" y="356.154" width="57.2857" height="57.2857" stroke="#61278B" stroke-opacity="0.03" stroke-width="1.14571"/>
<rect x="590.143" y="356.154" width="57.2857" height="57.2857" stroke="#61278B" stroke-opacity="0.03" stroke-width="1.14571"/>
<rect x="647.429" y="356.154" width="57.2857" height="57.2857" stroke="#61278B" stroke-opacity="0.03" stroke-width="1.14571"/>
<rect x="704.714" y="356.154" width="57.2857" height="57.2857" stroke="#61278B" stroke-opacity="0.03" stroke-width="1.14571"/>
<rect x="762" y="356.154" width="57.2857" height="57.2857" stroke="#61278B" stroke-opacity="0.03" stroke-width="1.14571"/>
<rect x="819.286" y="356.154" width="57.2857" height="57.2857" stroke="#61278B" stroke-opacity="0.03" stroke-width="1.14571"/>
<rect x="876.572" y="356.154" width="57.2857" height="57.2857" stroke="#61278B" stroke-opacity="0.03" stroke-width="1.14571"/>
<rect x="933.857" y="356.154" width="57.2857" height="57.2857" stroke="#61278B" stroke-opacity="0.03" stroke-width="1.14571"/>
<rect x="991.143" y="356.154" width="57.2857" height="57.2857" stroke="#61278B" stroke-opacity="0.03" stroke-width="1.14571"/>
<rect x="1048.43" y="356.154" width="57.2857" height="57.2857" stroke="#61278B" stroke-opacity="0.03" stroke-width="1.14571"/>
<rect x="1105.71" y="356.154" width="57.2857" height="57.2857" stroke="#61278B" stroke-opacity="0.03" stroke-width="1.14571"/>
<rect x="-40" y="417.846" width="57.2857" height="57.2857" stroke="#61278B" stroke-opacity="0.03" stroke-width="1.14571"/>
<rect x="17.2859" y="417.846" width="57.2857" height="57.2857" stroke="#61278B" stroke-opacity="0.03" stroke-width="1.14571"/>
<rect x="74.5714" y="417.846" width="57.2857" height="57.2857" stroke="#61278B" stroke-opacity="0.03" stroke-width="1.14571"/>
<rect x="131.857" y="417.846" width="57.2857" height="57.2857" stroke="#61278B" stroke-opacity="0.03" stroke-width="1.14571"/>
<rect x="189.143" y="417.846" width="57.2857" height="57.2857" stroke="#61278B" stroke-opacity="0.03" stroke-width="1.14571"/>
<rect x="246.429" y="417.846" width="57.2857" height="57.2857" stroke="#61278B" stroke-opacity="0.03" stroke-width="1.14571"/>
<rect x="303.714" y="417.846" width="57.2857" height="57.2857" stroke="#61278B" stroke-opacity="0.03" stroke-width="1.14571"/>
<rect x="361" y="417.846" width="57.2857" height="57.2857" stroke="#61278B" stroke-opacity="0.03" stroke-width="1.14571"/>
<rect x="418.286" y="417.846" width="57.2857" height="57.2857" fill="#61278B" fill-opacity="0.02" stroke="#61278B" stroke-opacity="0.03" stroke-width="1.14571"/>
<rect x="475.572" y="417.846" width="57.2857" height="57.2857" stroke="#61278B" stroke-opacity="0.03" stroke-width="1.14571"/>
<rect x="532.857" y="417.846" width="57.2857" height="57.2857" stroke="#61278B" stroke-opacity="0.03" stroke-width="1.14571"/>
<rect x="590.143" y="417.846" width="57.2857" height="57.2857" stroke="#61278B" stroke-opacity="0.03" stroke-width="1.14571"/>
<rect x="647.429" y="417.846" width="57.2857" height="57.2857" stroke="#61278B" stroke-opacity="0.03" stroke-width="1.14571"/>
<rect x="704.714" y="417.846" width="57.2857" height="57.2857" stroke="#61278B" stroke-opacity="0.03" stroke-width="1.14571"/>
<rect x="762" y="417.846" width="57.2857" height="57.2857" stroke="#61278B" stroke-opacity="0.03" stroke-width="1.14571"/>
<rect x="819.286" y="417.846" width="57.2857" height="57.2857" stroke="#61278B" stroke-opacity="0.03" stroke-width="1.14571"/>
<rect x="876.572" y="417.846" width="57.2857" height="57.2857" stroke="#61278B" stroke-opacity="0.03" stroke-width="1.14571"/>
<rect x="933.857" y="417.846" width="57.2857" height="57.2857" stroke="#61278B" stroke-opacity="0.03" stroke-width="1.14571"/>
<rect x="991.143" y="417.846" width="57.2857" height="57.2857" stroke="#61278B" stroke-opacity="0.03" stroke-width="1.14571"/>
<rect x="1048.43" y="417.846" width="57.2857" height="57.2857" stroke="#61278B" stroke-opacity="0.03" stroke-width="1.14571"/>
<rect x="1105.71" y="417.846" width="57.2857" height="57.2857" stroke="#61278B" stroke-opacity="0.03" stroke-width="1.14571"/>
<rect x="-40" y="479.538" width="57.2857" height="57.2857" stroke="#61278B" stroke-opacity="0.03" stroke-width="1.14571"/>
<rect x="17.2857" y="479.538" width="57.2857" height="57.2857" stroke="#61278B" stroke-opacity="0.03" stroke-width="1.14571"/>
<rect x="74.5715" y="479.538" width="57.2857" height="57.2857" stroke="#61278B" stroke-opacity="0.03" stroke-width="1.14571"/>
<rect x="131.857" y="479.538" width="57.2857" height="57.2857" stroke="#61278B" stroke-opacity="0.03" stroke-width="1.14571"/>
<rect x="189.143" y="479.538" width="57.2857" height="57.2857" fill="#61278B" fill-opacity="0.02" stroke="#61278B" stroke-opacity="0.03" stroke-width="1.14571"/>
<rect x="246.429" y="479.538" width="57.2857" height="57.2857" stroke="#61278B" stroke-opacity="0.03" stroke-width="1.14571"/>
<rect x="303.714" y="479.538" width="57.2857" height="57.2857" stroke="#61278B" stroke-opacity="0.03" stroke-width="1.14571"/>
<rect x="361" y="479.538" width="57.2857" height="57.2857" stroke="#61278B" stroke-opacity="0.03" stroke-width="1.14571"/>
<rect x="418.286" y="479.538" width="57.2857" height="57.2857" stroke="#61278B" stroke-opacity="0.03" stroke-width="1.14571"/>
<rect x="475.572" y="479.538" width="57.2857" height="57.2857" stroke="#61278B" stroke-opacity="0.03" stroke-width="1.14571"/>
<rect x="532.857" y="479.538" width="57.2857" height="57.2857" stroke="#61278B" stroke-opacity="0.03" stroke-width="1.14571"/>
<rect x="590.143" y="479.538" width="57.2857" height="57.2857" stroke="#61278B" stroke-opacity="0.03" stroke-width="1.14571"/>
<rect x="647.429" y="479.538" width="57.2857" height="57.2857" stroke="#61278B" stroke-opacity="0.03" stroke-width="1.14571"/>
<rect x="704.714" y="479.538" width="57.2857" height="57.2857" stroke="#61278B" stroke-opacity="0.03" stroke-width="1.14571"/>
<rect x="762" y="479.538" width="57.2857" height="57.2857" stroke="#61278B" stroke-opacity="0.03" stroke-width="1.14571"/>
<rect x="819.286" y="479.538" width="57.2857" height="57.2857" stroke="#61278B" stroke-opacity="0.03" stroke-width="1.14571"/>
<rect x="876.572" y="479.538" width="57.2857" height="57.2857" stroke="#61278B" stroke-opacity="0.03" stroke-width="1.14571"/>
<rect x="933.857" y="479.538" width="57.2857" height="57.2857" stroke="#61278B" stroke-opacity="0.03" stroke-width="1.14571"/>
<rect x="991.143" y="479.538" width="57.2857" height="57.2857" stroke="#61278B" stroke-opacity="0.03" stroke-width="1.14571"/>
<rect x="1048.43" y="479.538" width="57.2857" height="57.2857" stroke="#61278B" stroke-opacity="0.03" stroke-width="1.14571"/>
<rect x="1105.71" y="479.538" width="57.2857" height="57.2857" stroke="#61278B" stroke-opacity="0.03" stroke-width="1.14571"/>
<rect x="-40" y="541.231" width="57.2857" height="57.2857" stroke="#61278B" stroke-opacity="0.03" stroke-width="1.14571"/>
<rect x="17.2859" y="541.231" width="57.2857" height="57.2857" stroke="#61278B" stroke-opacity="0.03" stroke-width="1.14571"/>
<rect x="74.5714" y="541.231" width="57.2857" height="57.2857" stroke="#61278B" stroke-opacity="0.03" stroke-width="1.14571"/>
<rect x="131.857" y="541.231" width="57.2857" height="57.2857" stroke="#61278B" stroke-opacity="0.03" stroke-width="1.14571"/>
<rect x="189.143" y="541.231" width="57.2857" height="57.2857" stroke="#61278B" stroke-opacity="0.03" stroke-width="1.14571"/>
<rect x="246.429" y="541.231" width="57.2857" height="57.2857" stroke="#61278B" stroke-opacity="0.03" stroke-width="1.14571"/>
<rect x="303.714" y="541.231" width="57.2857" height="57.2857" stroke="#61278B" stroke-opacity="0.03" stroke-width="1.14571"/>
<rect x="361" y="541.231" width="57.2857" height="57.2857" stroke="#61278B" stroke-opacity="0.03" stroke-width="1.14571"/>
<rect x="418.286" y="541.231" width="57.2857" height="57.2857" stroke="#61278B" stroke-opacity="0.03" stroke-width="1.14571"/>
<rect x="475.572" y="541.231" width="57.2857" height="57.2857" stroke="#61278B" stroke-opacity="0.03" stroke-width="1.14571"/>
<rect x="532.857" y="541.231" width="57.2857" height="57.2857" stroke="#61278B" stroke-opacity="0.03" stroke-width="1.14571"/>
<rect x="590.143" y="541.231" width="57.2857" height="57.2857" stroke="#61278B" stroke-opacity="0.03" stroke-width="1.14571"/>
<rect x="647.429" y="541.231" width="57.2857" height="57.2857" stroke="#61278B" stroke-opacity="0.03" stroke-width="1.14571"/>
<rect x="704.714" y="541.231" width="57.2857" height="57.2857" stroke="#61278B" stroke-opacity="0.03" stroke-width="1.14571"/>
<rect x="762" y="541.231" width="57.2857" height="57.2857" stroke="#61278B" stroke-opacity="0.03" stroke-width="1.14571"/>
<rect x="819.286" y="541.231" width="57.2857" height="57.2857" stroke="#61278B" stroke-opacity="0.03" stroke-width="1.14571"/>
<rect x="876.572" y="541.231" width="57.2857" height="57.2857" stroke="#61278B" stroke-opacity="0.03" stroke-width="1.14571"/>
<rect x="933.857" y="541.231" width="57.2857" height="57.2857" stroke="#61278B" stroke-opacity="0.03" stroke-width="1.14571"/>
<rect x="991.143" y="541.231" width="57.2857" height="57.2857" stroke="#61278B" stroke-opacity="0.03" stroke-width="1.14571"/>
<rect x="1048.43" y="541.231" width="57.2857" height="57.2857" stroke="#61278B" stroke-opacity="0.03" stroke-width="1.14571"/>
<rect x="1105.71" y="541.231" width="57.2857" height="57.2857" stroke="#61278B" stroke-opacity="0.03" stroke-width="1.14571"/>
<rect x="-40" y="602.923" width="57.2857" height="57.2857" stroke="#61278B" stroke-opacity="0.03" stroke-width="1.14571"/>
<rect x="17.2859" y="602.923" width="57.2857" height="57.2857" stroke="#61278B" stroke-opacity="0.03" stroke-width="1.14571"/>
<rect x="74.5714" y="602.923" width="57.2857" height="57.2857" stroke="#61278B" stroke-opacity="0.03" stroke-width="1.14571"/>
<rect x="131.857" y="602.923" width="57.2857" height="57.2857" stroke="#61278B" stroke-opacity="0.03" stroke-width="1.14571"/>
<rect x="189.143" y="602.923" width="57.2857" height="57.2857" stroke="#61278B" stroke-opacity="0.03" stroke-width="1.14571"/>
<rect x="246.429" y="602.923" width="57.2857" height="57.2857" stroke="#61278B" stroke-opacity="0.03" stroke-width="1.14571"/>
<rect x="303.714" y="602.923" width="57.2857" height="57.2857" stroke="#61278B" stroke-opacity="0.03" stroke-width="1.14571"/>
<rect x="361" y="602.923" width="57.2857" height="57.2857" stroke="#61278B" stroke-opacity="0.03" stroke-width="1.14571"/>
<rect x="418.286" y="602.923" width="57.2857" height="57.2857" stroke="#61278B" stroke-opacity="0.03" stroke-width="1.14571"/>
<rect x="475.572" y="602.923" width="57.2857" height="57.2857" stroke="#61278B" stroke-opacity="0.03" stroke-width="1.14571"/>
<rect x="532.857" y="602.923" width="57.2857" height="57.2857" stroke="#61278B" stroke-opacity="0.03" stroke-width="1.14571"/>
<rect x="590.143" y="602.923" width="57.2857" height="57.2857" stroke="#61278B" stroke-opacity="0.03" stroke-width="1.14571"/>
<rect x="647.429" y="602.923" width="57.2857" height="57.2857" stroke="#61278B" stroke-opacity="0.03" stroke-width="1.14571"/>
<rect x="704.714" y="602.923" width="57.2857" height="57.2857" stroke="#61278B" stroke-opacity="0.03" stroke-width="1.14571"/>
<rect x="762" y="602.923" width="57.2857" height="57.2857" stroke="#61278B" stroke-opacity="0.03" stroke-width="1.14571"/>
<rect x="819.286" y="602.923" width="57.2857" height="57.2857" stroke="#61278B" stroke-opacity="0.03" stroke-width="1.14571"/>
<rect x="876.572" y="602.923" width="57.2857" height="57.2857" stroke="#61278B" stroke-opacity="0.03" stroke-width="1.14571"/>
<rect x="933.857" y="602.923" width="57.2857" height="57.2857" stroke="#61278B" stroke-opacity="0.03" stroke-width="1.14571"/>
<rect x="991.143" y="602.923" width="57.2857" height="57.2857" stroke="#61278B" stroke-opacity="0.03" stroke-width="1.14571"/>
<rect x="1048.43" y="602.923" width="57.2857" height="57.2857" stroke="#61278B" stroke-opacity="0.03" stroke-width="1.14571"/>
<rect x="1105.71" y="602.923" width="57.2857" height="57.2857" stroke="#61278B" stroke-opacity="0.03" stroke-width="1.14571"/>
<rect x="-40" y="664.615" width="57.2857" height="57.2857" stroke="#61278B" stroke-opacity="0.03" stroke-width="1.14571"/>
<rect x="17.2859" y="664.615" width="57.2857" height="57.2857" stroke="#61278B" stroke-opacity="0.03" stroke-width="1.14571"/>
<rect x="74.5714" y="664.615" width="57.2857" height="57.2857" stroke="#61278B" stroke-opacity="0.03" stroke-width="1.14571"/>
<rect x="131.857" y="664.615" width="57.2857" height="57.2857" stroke="#61278B" stroke-opacity="0.03" stroke-width="1.14571"/>
<rect x="189.143" y="664.615" width="57.2857" height="57.2857" stroke="#61278B" stroke-opacity="0.03" stroke-width="1.14571"/>
<rect x="246.429" y="664.615" width="57.2857" height="57.2857" stroke="#61278B" stroke-opacity="0.03" stroke-width="1.14571"/>
<rect x="303.714" y="664.615" width="57.2857" height="57.2857" stroke="#61278B" stroke-opacity="0.03" stroke-width="1.14571"/>
<rect x="361" y="664.615" width="57.2857" height="57.2857" stroke="#61278B" stroke-opacity="0.03" stroke-width="1.14571"/>
<rect x="418.286" y="664.615" width="57.2857" height="57.2857" stroke="#61278B" stroke-opacity="0.03" stroke-width="1.14571"/>
<rect x="475.572" y="664.615" width="57.2857" height="57.2857" stroke="#61278B" stroke-opacity="0.03" stroke-width="1.14571"/>
<rect x="532.857" y="664.615" width="57.2857" height="57.2857" stroke="#61278B" stroke-opacity="0.03" stroke-width="1.14571"/>
<rect x="590.143" y="664.615" width="57.2857" height="57.2857" stroke="#61278B" stroke-opacity="0.03" stroke-width="1.14571"/>
<rect x="647.429" y="664.615" width="57.2857" height="57.2857" stroke="#61278B" stroke-opacity="0.03" stroke-width="1.14571"/>
<rect x="704.714" y="664.615" width="57.2857" height="57.2857" stroke="#61278B" stroke-opacity="0.03" stroke-width="1.14571"/>
<rect x="762" y="664.615" width="57.2857" height="57.2857" stroke="#61278B" stroke-opacity="0.03" stroke-width="1.14571"/>
<rect x="819.286" y="664.615" width="57.2857" height="57.2857" stroke="#61278B" stroke-opacity="0.03" stroke-width="1.14571"/>
<rect x="876.572" y="664.615" width="57.2857" height="57.2857" stroke="#61278B" stroke-opacity="0.03" stroke-width="1.14571"/>
<rect x="933.857" y="664.615" width="57.2857" height="57.2857" stroke="#61278B" stroke-opacity="0.03" stroke-width="1.14571"/>
<rect x="991.143" y="664.615" width="57.2857" height="57.2857" stroke="#61278B" stroke-opacity="0.03" stroke-width="1.14571"/>
<rect x="1048.43" y="664.615" width="57.2857" height="57.2857" stroke="#61278B" stroke-opacity="0.03" stroke-width="1.14571"/>
<rect x="1105.71" y="664.615" width="57.2857" height="57.2857" stroke="#61278B" stroke-opacity="0.03" stroke-width="1.14571"/>
<rect x="-40" y="726.308" width="57.2857" height="57.2857" stroke="#61278B" stroke-opacity="0.03" stroke-width="1.14571"/>
<rect x="17.2857" y="726.308" width="57.2857" height="57.2857" stroke="#61278B" stroke-opacity="0.03" stroke-width="1.14571"/>
<rect x="74.5715" y="726.308" width="57.2857" height="57.2857" stroke="#61278B" stroke-opacity="0.03" stroke-width="1.14571"/>
<rect x="131.857" y="726.308" width="57.2857" height="57.2857" stroke="#61278B" stroke-opacity="0.03" stroke-width="1.14571"/>
<rect x="189.143" y="726.308" width="57.2857" height="57.2857" stroke="#61278B" stroke-opacity="0.03" stroke-width="1.14571"/>
<rect x="246.429" y="726.308" width="57.2857" height="57.2857" stroke="#61278B" stroke-opacity="0.03" stroke-width="1.14571"/>
<rect x="303.714" y="726.308" width="57.2857" height="57.2857" stroke="#61278B" stroke-opacity="0.03" stroke-width="1.14571"/>
<rect x="361" y="726.308" width="57.2857" height="57.2857" stroke="#61278B" stroke-opacity="0.03" stroke-width="1.14571"/>
<rect x="418.286" y="726.308" width="57.2857" height="57.2857" stroke="#61278B" stroke-opacity="0.03" stroke-width="1.14571"/>
<rect x="475.572" y="726.308" width="57.2857" height="57.2857" stroke="#61278B" stroke-opacity="0.03" stroke-width="1.14571"/>
<rect x="532.857" y="726.308" width="57.2857" height="57.2857" stroke="#61278B" stroke-opacity="0.03" stroke-width="1.14571"/>
<rect x="590.143" y="726.308" width="57.2857" height="57.2857" stroke="#61278B" stroke-opacity="0.03" stroke-width="1.14571"/>
<rect x="647.429" y="726.308" width="57.2857" height="57.2857" stroke="#61278B" stroke-opacity="0.03" stroke-width="1.14571"/>
<rect x="704.714" y="726.308" width="57.2857" height="57.2857" stroke="#61278B" stroke-opacity="0.03" stroke-width="1.14571"/>
<rect x="762" y="726.308" width="57.2857" height="57.2857" stroke="#61278B" stroke-opacity="0.03" stroke-width="1.14571"/>
<rect x="819.286" y="726.308" width="57.2857" height="57.2857" stroke="#61278B" stroke-opacity="0.03" stroke-width="1.14571"/>
<rect x="876.572" y="726.308" width="57.2857" height="57.2857" stroke="#61278B" stroke-opacity="0.03" stroke-width="1.14571"/>
<rect x="933.857" y="726.308" width="57.2857" height="57.2857" stroke="#61278B" stroke-opacity="0.03" stroke-width="1.14571"/>
<rect x="991.143" y="726.308" width="57.2857" height="57.2857" stroke="#61278B" stroke-opacity="0.03" stroke-width="1.14571"/>
<rect x="1048.43" y="726.308" width="57.2857" height="57.2857" stroke="#61278B" stroke-opacity="0.03" stroke-width="1.14571"/>
<rect x="1105.71" y="726.308" width="57.2857" height="57.2857" stroke="#61278B" stroke-opacity="0.03" stroke-width="1.14571"/>
</svg>
