<svg width="1093" height="676" viewBox="0 0 1093 676" fill="none" xmlns="http://www.w3.org/2000/svg">
<rect x="1" width="48.2857" height="48.2857" stroke="white" stroke-opacity="0.06" stroke-width="0.965714"/>
<rect x="49.2858" width="48.2857" height="48.2857" stroke="white" stroke-opacity="0.06" stroke-width="0.965714"/>
<rect x="97.5714" width="48.2857" height="48.2857" stroke="white" stroke-opacity="0.06" stroke-width="0.965714"/>
<rect x="145.857" width="48.2857" height="48.2857" stroke="white" stroke-opacity="0.06" stroke-width="0.965714"/>
<rect x="194.143" width="48.2857" height="48.2857" stroke="white" stroke-opacity="0.06" stroke-width="0.965714"/>
<rect x="242.429" width="48.2857" height="48.2857" stroke="white" stroke-opacity="0.06" stroke-width="0.965714"/>
<rect x="290.714" width="48.2857" height="48.2857" stroke="white" stroke-opacity="0.06" stroke-width="0.965714"/>
<rect x="339" width="48.2857" height="48.2857" stroke="white" stroke-opacity="0.06" stroke-width="0.965714"/>
<rect x="387.286" width="48.2857" height="48.2857" stroke="white" stroke-opacity="0.06" stroke-width="0.965714"/>
<rect x="435.572" width="48.2857" height="48.2857" stroke="white" stroke-opacity="0.06" stroke-width="0.965714"/>
<rect x="483.857" width="48.2857" height="48.2857" stroke="white" stroke-opacity="0.06" stroke-width="0.965714"/>
<rect x="532.143" width="48.2857" height="48.2857" stroke="white" stroke-opacity="0.06" stroke-width="0.965714"/>
<rect x="580.429" width="48.2857" height="48.2857" stroke="white" stroke-opacity="0.06" stroke-width="0.965714"/>
<rect x="628.714" width="48.2857" height="48.2857" stroke="white" stroke-opacity="0.06" stroke-width="0.965714"/>
<rect x="677" width="48.2857" height="48.2857" stroke="white" stroke-opacity="0.06" stroke-width="0.965714"/>
<rect x="725.286" width="48.2857" height="48.2857" stroke="white" stroke-opacity="0.06" stroke-width="0.965714"/>
<rect x="773.571" width="48.2857" height="48.2857" stroke="white" stroke-opacity="0.06" stroke-width="0.965714"/>
<rect x="821.857" width="48.2857" height="48.2857" stroke="white" stroke-opacity="0.06" stroke-width="0.965714"/>
<rect x="870.143" width="48.2857" height="48.2857" stroke="white" stroke-opacity="0.06" stroke-width="0.965714"/>
<rect x="918.429" width="48.2857" height="48.2857" stroke="white" stroke-opacity="0.06" stroke-width="0.965714"/>
<rect x="966.714" width="48.2857" height="48.2857" stroke="white" stroke-opacity="0.06" stroke-width="0.965714"/>
<rect x="1" y="52" width="48.2857" height="48.2857" stroke="white" stroke-opacity="0.06" stroke-width="0.965714"/>
<rect x="49.2858" y="52" width="48.2857" height="48.2857" stroke="white" stroke-opacity="0.06" stroke-width="0.965714"/>
<rect x="97.5714" y="52" width="48.2857" height="48.2857" fill="white" fill-opacity="0.05" stroke="white" stroke-opacity="0.06" stroke-width="0.965714"/>
<rect x="145.857" y="52" width="48.2857" height="48.2857" stroke="white" stroke-opacity="0.06" stroke-width="0.965714"/>
<rect x="194.143" y="52" width="48.2857" height="48.2857" stroke="white" stroke-opacity="0.06" stroke-width="0.965714"/>
<rect x="242.429" y="52" width="48.2857" height="48.2857" stroke="white" stroke-opacity="0.06" stroke-width="0.965714"/>
<rect x="290.714" y="52" width="48.2857" height="48.2857" stroke="white" stroke-opacity="0.06" stroke-width="0.965714"/>
<rect x="339" y="52" width="48.2857" height="48.2857" stroke="white" stroke-opacity="0.06" stroke-width="0.965714"/>
<rect x="387.286" y="52" width="48.2857" height="48.2857" stroke="white" stroke-opacity="0.06" stroke-width="0.965714"/>
<rect x="435.572" y="52" width="48.2857" height="48.2857" fill="white" fill-opacity="0.05" stroke="white" stroke-opacity="0.06" stroke-width="0.965714"/>
<rect x="483.857" y="52" width="48.2857" height="48.2857" stroke="white" stroke-opacity="0.06" stroke-width="0.965714"/>
<rect x="532.143" y="52" width="48.2857" height="48.2857" stroke="white" stroke-opacity="0.06" stroke-width="0.965714"/>
<rect x="580.429" y="52" width="48.2857" height="48.2857" stroke="white" stroke-opacity="0.06" stroke-width="0.965714"/>
<rect x="628.714" y="52" width="48.2857" height="48.2857" stroke="white" stroke-opacity="0.06" stroke-width="0.965714"/>
<rect x="677" y="52" width="48.2857" height="48.2857" stroke="white" stroke-opacity="0.06" stroke-width="0.965714"/>
<rect x="725.286" y="52" width="48.2857" height="48.2857" stroke="white" stroke-opacity="0.06" stroke-width="0.965714"/>
<rect x="773.571" y="52" width="48.2857" height="48.2857" stroke="white" stroke-opacity="0.06" stroke-width="0.965714"/>
<rect x="821.857" y="52" width="48.2857" height="48.2857" stroke="white" stroke-opacity="0.06" stroke-width="0.965714"/>
<rect x="870.143" y="52" width="48.2857" height="48.2857" stroke="white" stroke-opacity="0.06" stroke-width="0.965714"/>
<rect x="918.429" y="52" width="48.2857" height="48.2857" stroke="white" stroke-opacity="0.06" stroke-width="0.965714"/>
<rect x="966.714" y="52" width="48.2857" height="48.2857" stroke="white" stroke-opacity="0.06" stroke-width="0.965714"/>
<rect x="1" y="104" width="48.2857" height="48.2857" stroke="white" stroke-opacity="0.06" stroke-width="0.965714"/>
<rect x="49.2858" y="104" width="48.2857" height="48.2857" stroke="white" stroke-opacity="0.06" stroke-width="0.965714"/>
<rect x="97.5714" y="104" width="48.2857" height="48.2857" stroke="white" stroke-opacity="0.06" stroke-width="0.965714"/>
<rect x="145.857" y="104" width="48.2857" height="48.2857" stroke="white" stroke-opacity="0.06" stroke-width="0.965714"/>
<rect x="194.143" y="104" width="48.2857" height="48.2857" stroke="white" stroke-opacity="0.06" stroke-width="0.965714"/>
<rect x="242.429" y="104" width="48.2857" height="48.2857" stroke="white" stroke-opacity="0.06" stroke-width="0.965714"/>
<rect x="290.714" y="104" width="48.2857" height="48.2857" stroke="white" stroke-opacity="0.06" stroke-width="0.965714"/>
<rect x="339" y="104" width="48.2857" height="48.2857" stroke="white" stroke-opacity="0.06" stroke-width="0.965714"/>
<rect x="387.286" y="104" width="48.2857" height="48.2857" stroke="white" stroke-opacity="0.06" stroke-width="0.965714"/>
<rect x="435.572" y="104" width="48.2857" height="48.2857" stroke="white" stroke-opacity="0.06" stroke-width="0.965714"/>
<rect x="483.857" y="104" width="48.2857" height="48.2857" stroke="white" stroke-opacity="0.06" stroke-width="0.965714"/>
<rect x="532.143" y="104" width="48.2857" height="48.2857" stroke="white" stroke-opacity="0.06" stroke-width="0.965714"/>
<rect x="580.429" y="104" width="48.2857" height="48.2857" stroke="white" stroke-opacity="0.06" stroke-width="0.965714"/>
<rect x="628.714" y="104" width="48.2857" height="48.2857" stroke="white" stroke-opacity="0.06" stroke-width="0.965714"/>
<rect x="677" y="104" width="48.2857" height="48.2857" stroke="white" stroke-opacity="0.06" stroke-width="0.965714"/>
<rect x="725.286" y="104" width="48.2857" height="48.2857" stroke="white" stroke-opacity="0.06" stroke-width="0.965714"/>
<rect x="773.571" y="104" width="48.2857" height="48.2857" fill="white" fill-opacity="0.05" stroke="white" stroke-opacity="0.06" stroke-width="0.965714"/>
<rect x="821.857" y="104" width="48.2857" height="48.2857" stroke="white" stroke-opacity="0.06" stroke-width="0.965714"/>
<rect x="870.143" y="104" width="48.2857" height="48.2857" stroke="white" stroke-opacity="0.06" stroke-width="0.965714"/>
<rect x="918.429" y="104" width="48.2857" height="48.2857" stroke="white" stroke-opacity="0.06" stroke-width="0.965714"/>
<rect x="966.714" y="104" width="48.2857" height="48.2857" stroke="white" stroke-opacity="0.06" stroke-width="0.965714"/>
<rect x="1" y="156" width="48.2857" height="48.2857" stroke="white" stroke-opacity="0.06" stroke-width="0.965714"/>
<rect x="49.2858" y="156" width="48.2857" height="48.2857" stroke="white" stroke-opacity="0.06" stroke-width="0.965714"/>
<rect x="97.5714" y="156" width="48.2857" height="48.2857" stroke="white" stroke-opacity="0.06" stroke-width="0.965714"/>
<rect x="145.857" y="156" width="48.2857" height="48.2857" stroke="white" stroke-opacity="0.06" stroke-width="0.965714"/>
<rect x="194.143" y="156" width="48.2857" height="48.2857" stroke="white" stroke-opacity="0.06" stroke-width="0.965714"/>
<rect x="242.429" y="156" width="48.2857" height="48.2857" stroke="white" stroke-opacity="0.06" stroke-width="0.965714"/>
<rect x="290.714" y="156" width="48.2857" height="48.2857" stroke="white" stroke-opacity="0.06" stroke-width="0.965714"/>
<rect x="339" y="156" width="48.2857" height="48.2857" stroke="white" stroke-opacity="0.06" stroke-width="0.965714"/>
<rect x="387.286" y="156" width="48.2857" height="48.2857" stroke="white" stroke-opacity="0.06" stroke-width="0.965714"/>
<rect x="435.572" y="156" width="48.2857" height="48.2857" stroke="white" stroke-opacity="0.06" stroke-width="0.965714"/>
<rect x="483.857" y="156" width="48.2857" height="48.2857" stroke="white" stroke-opacity="0.06" stroke-width="0.965714"/>
<rect x="532.143" y="156" width="48.2857" height="48.2857" stroke="white" stroke-opacity="0.06" stroke-width="0.965714"/>
<rect x="580.429" y="156" width="48.2857" height="48.2857" stroke="white" stroke-opacity="0.06" stroke-width="0.965714"/>
<rect x="628.714" y="156" width="48.2857" height="48.2857" stroke="white" stroke-opacity="0.06" stroke-width="0.965714"/>
<rect x="677" y="156" width="48.2857" height="48.2857" stroke="white" stroke-opacity="0.06" stroke-width="0.965714"/>
<rect x="725.286" y="156" width="48.2857" height="48.2857" stroke="white" stroke-opacity="0.06" stroke-width="0.965714"/>
<rect x="773.571" y="156" width="48.2857" height="48.2857" stroke="white" stroke-opacity="0.06" stroke-width="0.965714"/>
<rect x="821.857" y="156" width="48.2857" height="48.2857" stroke="white" stroke-opacity="0.06" stroke-width="0.965714"/>
<rect x="870.143" y="156" width="48.2857" height="48.2857" stroke="white" stroke-opacity="0.06" stroke-width="0.965714"/>
<rect x="918.429" y="156" width="48.2857" height="48.2857" stroke="white" stroke-opacity="0.06" stroke-width="0.965714"/>
<rect x="966.714" y="156" width="48.2857" height="48.2857" stroke="white" stroke-opacity="0.06" stroke-width="0.965714"/>
<rect x="1" y="208" width="48.2857" height="48.2857" stroke="white" stroke-opacity="0.06" stroke-width="0.965714"/>
<rect x="49.2858" y="208" width="48.2857" height="48.2857" stroke="white" stroke-opacity="0.06" stroke-width="0.965714"/>
<rect x="97.5714" y="208" width="48.2857" height="48.2857" stroke="white" stroke-opacity="0.06" stroke-width="0.965714"/>
<rect x="145.857" y="208" width="48.2857" height="48.2857" fill="white" fill-opacity="0.05" stroke="white" stroke-opacity="0.06" stroke-width="0.965714"/>
<rect x="194.143" y="208" width="48.2857" height="48.2857" stroke="white" stroke-opacity="0.06" stroke-width="0.965714"/>
<rect x="242.429" y="208" width="48.2857" height="48.2857" stroke="white" stroke-opacity="0.06" stroke-width="0.965714"/>
<rect x="290.714" y="208" width="48.2857" height="48.2857" stroke="white" stroke-opacity="0.06" stroke-width="0.965714"/>
<rect x="339" y="208" width="48.2857" height="48.2857" stroke="white" stroke-opacity="0.06" stroke-width="0.965714"/>
<rect x="387.286" y="208" width="48.2857" height="48.2857" stroke="white" stroke-opacity="0.06" stroke-width="0.965714"/>
<rect x="435.572" y="208" width="48.2857" height="48.2857" stroke="white" stroke-opacity="0.06" stroke-width="0.965714"/>
<rect x="483.857" y="208" width="48.2857" height="48.2857" stroke="white" stroke-opacity="0.06" stroke-width="0.965714"/>
<rect x="532.143" y="208" width="48.2857" height="48.2857" stroke="white" stroke-opacity="0.06" stroke-width="0.965714"/>
<rect x="580.429" y="208" width="48.2857" height="48.2857" fill="white" fill-opacity="0.05" stroke="white" stroke-opacity="0.06" stroke-width="0.965714"/>
<rect x="628.714" y="208" width="48.2857" height="48.2857" stroke="white" stroke-opacity="0.06" stroke-width="0.965714"/>
<rect x="677" y="208" width="48.2857" height="48.2857" stroke="white" stroke-opacity="0.06" stroke-width="0.965714"/>
<rect x="725.286" y="208" width="48.2857" height="48.2857" stroke="white" stroke-opacity="0.06" stroke-width="0.965714"/>
<rect x="773.571" y="208" width="48.2857" height="48.2857" stroke="white" stroke-opacity="0.06" stroke-width="0.965714"/>
<rect x="821.857" y="208" width="48.2857" height="48.2857" stroke="white" stroke-opacity="0.06" stroke-width="0.965714"/>
<rect x="870.143" y="208" width="48.2857" height="48.2857" stroke="white" stroke-opacity="0.06" stroke-width="0.965714"/>
<rect x="918.429" y="208" width="48.2857" height="48.2857" stroke="white" stroke-opacity="0.06" stroke-width="0.965714"/>
<rect x="966.714" y="208" width="48.2857" height="48.2857" stroke="white" stroke-opacity="0.06" stroke-width="0.965714"/>
<rect x="1" y="260" width="48.2857" height="48.2857" stroke="white" stroke-opacity="0.06" stroke-width="0.965714"/>
<rect x="49.2858" y="260" width="48.2857" height="48.2857" stroke="white" stroke-opacity="0.06" stroke-width="0.965714"/>
<rect x="97.5714" y="260" width="48.2857" height="48.2857" stroke="white" stroke-opacity="0.06" stroke-width="0.965714"/>
<rect x="145.857" y="260" width="48.2857" height="48.2857" stroke="white" stroke-opacity="0.06" stroke-width="0.965714"/>
<rect x="194.143" y="260" width="48.2857" height="48.2857" stroke="white" stroke-opacity="0.06" stroke-width="0.965714"/>
<rect x="242.429" y="260" width="48.2857" height="48.2857" stroke="white" stroke-opacity="0.06" stroke-width="0.965714"/>
<rect x="290.714" y="260" width="48.2857" height="48.2857" stroke="white" stroke-opacity="0.06" stroke-width="0.965714"/>
<rect x="339" y="260" width="48.2857" height="48.2857" stroke="white" stroke-opacity="0.06" stroke-width="0.965714"/>
<rect x="387.286" y="260" width="48.2857" height="48.2857" stroke="white" stroke-opacity="0.06" stroke-width="0.965714"/>
<rect x="435.572" y="260" width="48.2857" height="48.2857" stroke="white" stroke-opacity="0.06" stroke-width="0.965714"/>
<rect x="483.857" y="260" width="48.2857" height="48.2857" stroke="white" stroke-opacity="0.06" stroke-width="0.965714"/>
<rect x="532.143" y="260" width="48.2857" height="48.2857" stroke="white" stroke-opacity="0.06" stroke-width="0.965714"/>
<rect x="580.429" y="260" width="48.2857" height="48.2857" stroke="white" stroke-opacity="0.06" stroke-width="0.965714"/>
<rect x="628.714" y="260" width="48.2857" height="48.2857" stroke="white" stroke-opacity="0.06" stroke-width="0.965714"/>
<rect x="677" y="260" width="48.2857" height="48.2857" stroke="white" stroke-opacity="0.06" stroke-width="0.965714"/>
<rect x="725.286" y="260" width="48.2857" height="48.2857" stroke="white" stroke-opacity="0.06" stroke-width="0.965714"/>
<rect x="773.571" y="260" width="48.2857" height="48.2857" stroke="white" stroke-opacity="0.06" stroke-width="0.965714"/>
<rect x="821.857" y="260" width="48.2857" height="48.2857" stroke="white" stroke-opacity="0.06" stroke-width="0.965714"/>
<rect x="870.143" y="260" width="48.2857" height="48.2857" fill="white" fill-opacity="0.05" stroke="white" stroke-opacity="0.06" stroke-width="0.965714"/>
<rect x="918.429" y="260" width="48.2857" height="48.2857" stroke="white" stroke-opacity="0.06" stroke-width="0.965714"/>
<rect x="966.714" y="260" width="48.2857" height="48.2857" stroke="white" stroke-opacity="0.06" stroke-width="0.965714"/>
<rect x="1" y="312" width="48.2857" height="48.2857" stroke="white" stroke-opacity="0.06" stroke-width="0.965714"/>
<rect x="49.2858" y="312" width="48.2857" height="48.2857" stroke="white" stroke-opacity="0.06" stroke-width="0.965714"/>
<rect x="97.5714" y="312" width="48.2857" height="48.2857" stroke="white" stroke-opacity="0.06" stroke-width="0.965714"/>
<rect x="145.857" y="312" width="48.2857" height="48.2857" stroke="white" stroke-opacity="0.06" stroke-width="0.965714"/>
<rect x="194.143" y="312" width="48.2857" height="48.2857" stroke="white" stroke-opacity="0.06" stroke-width="0.965714"/>
<rect x="242.429" y="312" width="48.2857" height="48.2857" stroke="white" stroke-opacity="0.06" stroke-width="0.965714"/>
<rect x="290.714" y="312" width="48.2857" height="48.2857" stroke="white" stroke-opacity="0.06" stroke-width="0.965714"/>
<rect x="339" y="312" width="48.2857" height="48.2857" stroke="white" stroke-opacity="0.06" stroke-width="0.965714"/>
<rect x="387.286" y="312" width="48.2857" height="48.2857" stroke="white" stroke-opacity="0.06" stroke-width="0.965714"/>
<rect x="435.572" y="312" width="48.2857" height="48.2857" stroke="white" stroke-opacity="0.06" stroke-width="0.965714"/>
<rect x="483.857" y="312" width="48.2857" height="48.2857" stroke="white" stroke-opacity="0.06" stroke-width="0.965714"/>
<rect x="532.143" y="312" width="48.2857" height="48.2857" stroke="white" stroke-opacity="0.06" stroke-width="0.965714"/>
<rect x="580.429" y="312" width="48.2857" height="48.2857" stroke="white" stroke-opacity="0.06" stroke-width="0.965714"/>
<rect x="628.714" y="312" width="48.2857" height="48.2857" stroke="white" stroke-opacity="0.06" stroke-width="0.965714"/>
<rect x="677" y="312" width="48.2857" height="48.2857" stroke="white" stroke-opacity="0.06" stroke-width="0.965714"/>
<rect x="725.286" y="312" width="48.2857" height="48.2857" stroke="white" stroke-opacity="0.06" stroke-width="0.965714"/>
<rect x="773.571" y="312" width="48.2857" height="48.2857" stroke="white" stroke-opacity="0.06" stroke-width="0.965714"/>
<rect x="821.857" y="312" width="48.2857" height="48.2857" stroke="white" stroke-opacity="0.06" stroke-width="0.965714"/>
<rect x="870.143" y="312" width="48.2857" height="48.2857" stroke="white" stroke-opacity="0.06" stroke-width="0.965714"/>
<rect x="918.429" y="312" width="48.2857" height="48.2857" stroke="white" stroke-opacity="0.06" stroke-width="0.965714"/>
<rect x="966.714" y="312" width="48.2857" height="48.2857" stroke="white" stroke-opacity="0.06" stroke-width="0.965714"/>
<rect x="1" y="364" width="48.2857" height="48.2857" stroke="white" stroke-opacity="0.06" stroke-width="0.965714"/>
<rect x="49.2858" y="364" width="48.2857" height="48.2857" stroke="white" stroke-opacity="0.06" stroke-width="0.965714"/>
<rect x="97.5714" y="364" width="48.2857" height="48.2857" stroke="white" stroke-opacity="0.06" stroke-width="0.965714"/>
<rect x="145.857" y="364" width="48.2857" height="48.2857" stroke="white" stroke-opacity="0.06" stroke-width="0.965714"/>
<rect x="194.143" y="364" width="48.2857" height="48.2857" stroke="white" stroke-opacity="0.06" stroke-width="0.965714"/>
<rect x="242.429" y="364" width="48.2857" height="48.2857" stroke="white" stroke-opacity="0.06" stroke-width="0.965714"/>
<rect x="290.714" y="364" width="48.2857" height="48.2857" stroke="white" stroke-opacity="0.06" stroke-width="0.965714"/>
<rect x="339" y="364" width="48.2857" height="48.2857" stroke="white" stroke-opacity="0.06" stroke-width="0.965714"/>
<rect x="387.286" y="364" width="48.2857" height="48.2857" fill="white" fill-opacity="0.05" stroke="white" stroke-opacity="0.06" stroke-width="0.965714"/>
<rect x="435.572" y="364" width="48.2857" height="48.2857" stroke="white" stroke-opacity="0.06" stroke-width="0.965714"/>
<rect x="483.857" y="364" width="48.2857" height="48.2857" stroke="white" stroke-opacity="0.06" stroke-width="0.965714"/>
<rect x="532.143" y="364" width="48.2857" height="48.2857" stroke="white" stroke-opacity="0.06" stroke-width="0.965714"/>
<rect x="580.429" y="364" width="48.2857" height="48.2857" stroke="white" stroke-opacity="0.06" stroke-width="0.965714"/>
<rect x="628.714" y="364" width="48.2857" height="48.2857" stroke="white" stroke-opacity="0.06" stroke-width="0.965714"/>
<rect x="677" y="364" width="48.2857" height="48.2857" stroke="white" stroke-opacity="0.06" stroke-width="0.965714"/>
<rect x="725.286" y="364" width="48.2857" height="48.2857" stroke="white" stroke-opacity="0.06" stroke-width="0.965714"/>
<rect x="773.571" y="364" width="48.2857" height="48.2857" stroke="white" stroke-opacity="0.06" stroke-width="0.965714"/>
<rect x="821.857" y="364" width="48.2857" height="48.2857" stroke="white" stroke-opacity="0.06" stroke-width="0.965714"/>
<rect x="870.143" y="364" width="48.2857" height="48.2857" stroke="white" stroke-opacity="0.06" stroke-width="0.965714"/>
<rect x="918.429" y="364" width="48.2857" height="48.2857" stroke="white" stroke-opacity="0.06" stroke-width="0.965714"/>
<rect x="966.714" y="364" width="48.2857" height="48.2857" stroke="white" stroke-opacity="0.06" stroke-width="0.965714"/>
<rect x="1" y="416" width="48.2857" height="48.2857" stroke="white" stroke-opacity="0.06" stroke-width="0.965714"/>
<rect x="49.2858" y="416" width="48.2857" height="48.2857" stroke="white" stroke-opacity="0.06" stroke-width="0.965714"/>
<rect x="97.5714" y="416" width="48.2857" height="48.2857" stroke="white" stroke-opacity="0.06" stroke-width="0.965714"/>
<rect x="145.857" y="416" width="48.2857" height="48.2857" stroke="white" stroke-opacity="0.06" stroke-width="0.965714"/>
<rect x="194.143" y="416" width="48.2857" height="48.2857" fill="white" fill-opacity="0.05" stroke="white" stroke-opacity="0.06" stroke-width="0.965714"/>
<rect x="242.429" y="416" width="48.2857" height="48.2857" stroke="white" stroke-opacity="0.06" stroke-width="0.965714"/>
<rect x="290.714" y="416" width="48.2857" height="48.2857" stroke="white" stroke-opacity="0.06" stroke-width="0.965714"/>
<rect x="339" y="416" width="48.2857" height="48.2857" stroke="white" stroke-opacity="0.06" stroke-width="0.965714"/>
<rect x="387.286" y="416" width="48.2857" height="48.2857" stroke="white" stroke-opacity="0.06" stroke-width="0.965714"/>
<rect x="435.572" y="416" width="48.2857" height="48.2857" stroke="white" stroke-opacity="0.06" stroke-width="0.965714"/>
<rect x="483.857" y="416" width="48.2857" height="48.2857" stroke="white" stroke-opacity="0.06" stroke-width="0.965714"/>
<rect x="532.143" y="416" width="48.2857" height="48.2857" stroke="white" stroke-opacity="0.06" stroke-width="0.965714"/>
<rect x="580.429" y="416" width="48.2857" height="48.2857" stroke="white" stroke-opacity="0.06" stroke-width="0.965714"/>
<rect x="628.714" y="416" width="48.2857" height="48.2857" stroke="white" stroke-opacity="0.06" stroke-width="0.965714"/>
<rect x="677" y="416" width="48.2857" height="48.2857" stroke="white" stroke-opacity="0.06" stroke-width="0.965714"/>
<rect x="725.286" y="416" width="48.2857" height="48.2857" stroke="white" stroke-opacity="0.06" stroke-width="0.965714"/>
<rect x="773.571" y="416" width="48.2857" height="48.2857" stroke="white" stroke-opacity="0.06" stroke-width="0.965714"/>
<rect x="821.857" y="416" width="48.2857" height="48.2857" stroke="white" stroke-opacity="0.06" stroke-width="0.965714"/>
<rect x="870.143" y="416" width="48.2857" height="48.2857" stroke="white" stroke-opacity="0.06" stroke-width="0.965714"/>
<rect x="918.429" y="416" width="48.2857" height="48.2857" stroke="white" stroke-opacity="0.06" stroke-width="0.965714"/>
<rect x="966.714" y="416" width="48.2857" height="48.2857" stroke="white" stroke-opacity="0.06" stroke-width="0.965714"/>
<rect x="1" y="468" width="48.2857" height="48.2857" stroke="white" stroke-opacity="0.06" stroke-width="0.965714"/>
<rect x="49.2858" y="468" width="48.2857" height="48.2857" stroke="white" stroke-opacity="0.06" stroke-width="0.965714"/>
<rect x="97.5714" y="468" width="48.2857" height="48.2857" stroke="white" stroke-opacity="0.06" stroke-width="0.965714"/>
<rect x="145.857" y="468" width="48.2857" height="48.2857" stroke="white" stroke-opacity="0.06" stroke-width="0.965714"/>
<rect x="194.143" y="468" width="48.2857" height="48.2857" stroke="white" stroke-opacity="0.06" stroke-width="0.965714"/>
<rect x="242.429" y="468" width="48.2857" height="48.2857" stroke="white" stroke-opacity="0.06" stroke-width="0.965714"/>
<rect x="290.714" y="468" width="48.2857" height="48.2857" stroke="white" stroke-opacity="0.06" stroke-width="0.965714"/>
<rect x="339" y="468" width="48.2857" height="48.2857" stroke="white" stroke-opacity="0.06" stroke-width="0.965714"/>
<rect x="387.286" y="468" width="48.2857" height="48.2857" stroke="white" stroke-opacity="0.06" stroke-width="0.965714"/>
<rect x="435.572" y="468" width="48.2857" height="48.2857" stroke="white" stroke-opacity="0.06" stroke-width="0.965714"/>
<rect x="483.857" y="468" width="48.2857" height="48.2857" stroke="white" stroke-opacity="0.06" stroke-width="0.965714"/>
<rect x="532.143" y="468" width="48.2857" height="48.2857" stroke="white" stroke-opacity="0.06" stroke-width="0.965714"/>
<rect x="580.429" y="468" width="48.2857" height="48.2857" stroke="white" stroke-opacity="0.06" stroke-width="0.965714"/>
<rect x="628.714" y="468" width="48.2857" height="48.2857" stroke="white" stroke-opacity="0.06" stroke-width="0.965714"/>
<rect x="677" y="468" width="48.2857" height="48.2857" stroke="white" stroke-opacity="0.06" stroke-width="0.965714"/>
<rect x="725.286" y="468" width="48.2857" height="48.2857" stroke="white" stroke-opacity="0.06" stroke-width="0.965714"/>
<rect x="773.571" y="468" width="48.2857" height="48.2857" stroke="white" stroke-opacity="0.06" stroke-width="0.965714"/>
<rect x="821.857" y="468" width="48.2857" height="48.2857" stroke="white" stroke-opacity="0.06" stroke-width="0.965714"/>
<rect x="870.143" y="468" width="48.2857" height="48.2857" stroke="white" stroke-opacity="0.06" stroke-width="0.965714"/>
<rect x="918.429" y="468" width="48.2857" height="48.2857" stroke="white" stroke-opacity="0.06" stroke-width="0.965714"/>
<rect x="966.714" y="468" width="48.2857" height="48.2857" stroke="white" stroke-opacity="0.06" stroke-width="0.965714"/>
<rect x="1" y="520" width="48.2857" height="48.2857" stroke="white" stroke-opacity="0.06" stroke-width="0.965714"/>
<rect x="49.2858" y="520" width="48.2857" height="48.2857" stroke="white" stroke-opacity="0.06" stroke-width="0.965714"/>
<rect x="97.5714" y="520" width="48.2857" height="48.2857" stroke="white" stroke-opacity="0.06" stroke-width="0.965714"/>
<rect x="145.857" y="520" width="48.2857" height="48.2857" stroke="white" stroke-opacity="0.06" stroke-width="0.965714"/>
<rect x="194.143" y="520" width="48.2857" height="48.2857" stroke="white" stroke-opacity="0.06" stroke-width="0.965714"/>
<rect x="242.429" y="520" width="48.2857" height="48.2857" stroke="white" stroke-opacity="0.06" stroke-width="0.965714"/>
<rect x="290.714" y="520" width="48.2857" height="48.2857" stroke="white" stroke-opacity="0.06" stroke-width="0.965714"/>
<rect x="339" y="520" width="48.2857" height="48.2857" stroke="white" stroke-opacity="0.06" stroke-width="0.965714"/>
<rect x="387.286" y="520" width="48.2857" height="48.2857" stroke="white" stroke-opacity="0.06" stroke-width="0.965714"/>
<rect x="435.572" y="520" width="48.2857" height="48.2857" stroke="white" stroke-opacity="0.06" stroke-width="0.965714"/>
<rect x="483.857" y="520" width="48.2857" height="48.2857" stroke="white" stroke-opacity="0.06" stroke-width="0.965714"/>
<rect x="532.143" y="520" width="48.2857" height="48.2857" stroke="white" stroke-opacity="0.06" stroke-width="0.965714"/>
<rect x="580.429" y="520" width="48.2857" height="48.2857" stroke="white" stroke-opacity="0.06" stroke-width="0.965714"/>
<rect x="628.714" y="520" width="48.2857" height="48.2857" stroke="white" stroke-opacity="0.06" stroke-width="0.965714"/>
<rect x="677" y="520" width="48.2857" height="48.2857" stroke="white" stroke-opacity="0.06" stroke-width="0.965714"/>
<rect x="725.286" y="520" width="48.2857" height="48.2857" stroke="white" stroke-opacity="0.06" stroke-width="0.965714"/>
<rect x="773.571" y="520" width="48.2857" height="48.2857" stroke="white" stroke-opacity="0.06" stroke-width="0.965714"/>
<rect x="821.857" y="520" width="48.2857" height="48.2857" stroke="white" stroke-opacity="0.06" stroke-width="0.965714"/>
<rect x="870.143" y="520" width="48.2857" height="48.2857" stroke="white" stroke-opacity="0.06" stroke-width="0.965714"/>
<rect x="918.429" y="520" width="48.2857" height="48.2857" stroke="white" stroke-opacity="0.06" stroke-width="0.965714"/>
<rect x="966.714" y="520" width="48.2857" height="48.2857" stroke="white" stroke-opacity="0.06" stroke-width="0.965714"/>
<rect x="1" y="572" width="48.2857" height="48.2857" stroke="white" stroke-opacity="0.06" stroke-width="0.965714"/>
<rect x="49.2858" y="572" width="48.2857" height="48.2857" stroke="white" stroke-opacity="0.06" stroke-width="0.965714"/>
<rect x="97.5714" y="572" width="48.2857" height="48.2857" stroke="white" stroke-opacity="0.06" stroke-width="0.965714"/>
<rect x="145.857" y="572" width="48.2857" height="48.2857" stroke="white" stroke-opacity="0.06" stroke-width="0.965714"/>
<rect x="194.143" y="572" width="48.2857" height="48.2857" stroke="white" stroke-opacity="0.06" stroke-width="0.965714"/>
<rect x="242.429" y="572" width="48.2857" height="48.2857" stroke="white" stroke-opacity="0.06" stroke-width="0.965714"/>
<rect x="290.714" y="572" width="48.2857" height="48.2857" stroke="white" stroke-opacity="0.06" stroke-width="0.965714"/>
<rect x="339" y="572" width="48.2857" height="48.2857" stroke="white" stroke-opacity="0.06" stroke-width="0.965714"/>
<rect x="387.286" y="572" width="48.2857" height="48.2857" stroke="white" stroke-opacity="0.06" stroke-width="0.965714"/>
<rect x="435.572" y="572" width="48.2857" height="48.2857" stroke="white" stroke-opacity="0.06" stroke-width="0.965714"/>
<rect x="483.857" y="572" width="48.2857" height="48.2857" stroke="white" stroke-opacity="0.06" stroke-width="0.965714"/>
<rect x="532.143" y="572" width="48.2857" height="48.2857" stroke="white" stroke-opacity="0.06" stroke-width="0.965714"/>
<rect x="580.429" y="572" width="48.2857" height="48.2857" stroke="white" stroke-opacity="0.06" stroke-width="0.965714"/>
<rect x="628.714" y="572" width="48.2857" height="48.2857" stroke="white" stroke-opacity="0.06" stroke-width="0.965714"/>
<rect x="677" y="572" width="48.2857" height="48.2857" stroke="white" stroke-opacity="0.06" stroke-width="0.965714"/>
<rect x="725.286" y="572" width="48.2857" height="48.2857" stroke="white" stroke-opacity="0.06" stroke-width="0.965714"/>
<rect x="773.571" y="572" width="48.2857" height="48.2857" stroke="white" stroke-opacity="0.06" stroke-width="0.965714"/>
<rect x="821.857" y="572" width="48.2857" height="48.2857" stroke="white" stroke-opacity="0.06" stroke-width="0.965714"/>
<rect x="870.143" y="572" width="48.2857" height="48.2857" stroke="white" stroke-opacity="0.06" stroke-width="0.965714"/>
<rect x="918.429" y="572" width="48.2857" height="48.2857" stroke="white" stroke-opacity="0.06" stroke-width="0.965714"/>
<rect x="966.714" y="572" width="48.2857" height="48.2857" stroke="white" stroke-opacity="0.06" stroke-width="0.965714"/>
<rect x="1" y="624" width="48.2857" height="48.2857" stroke="white" stroke-opacity="0.06" stroke-width="0.965714"/>
<rect x="49.2858" y="624" width="48.2857" height="48.2857" stroke="white" stroke-opacity="0.06" stroke-width="0.965714"/>
<rect x="97.5714" y="624" width="48.2857" height="48.2857" stroke="white" stroke-opacity="0.06" stroke-width="0.965714"/>
<rect x="145.857" y="624" width="48.2857" height="48.2857" stroke="white" stroke-opacity="0.06" stroke-width="0.965714"/>
<rect x="194.143" y="624" width="48.2857" height="48.2857" stroke="white" stroke-opacity="0.06" stroke-width="0.965714"/>
<rect x="242.429" y="624" width="48.2857" height="48.2857" stroke="white" stroke-opacity="0.06" stroke-width="0.965714"/>
<rect x="290.714" y="624" width="48.2857" height="48.2857" stroke="white" stroke-opacity="0.06" stroke-width="0.965714"/>
<rect x="339" y="624" width="48.2857" height="48.2857" stroke="white" stroke-opacity="0.06" stroke-width="0.965714"/>
<rect x="387.286" y="624" width="48.2857" height="48.2857" stroke="white" stroke-opacity="0.06" stroke-width="0.965714"/>
<rect x="435.572" y="624" width="48.2857" height="48.2857" stroke="white" stroke-opacity="0.06" stroke-width="0.965714"/>
<rect x="483.857" y="624" width="48.2857" height="48.2857" stroke="white" stroke-opacity="0.06" stroke-width="0.965714"/>
<rect x="532.143" y="624" width="48.2857" height="48.2857" stroke="white" stroke-opacity="0.06" stroke-width="0.965714"/>
<rect x="580.429" y="624" width="48.2857" height="48.2857" stroke="white" stroke-opacity="0.06" stroke-width="0.965714"/>
<rect x="628.714" y="624" width="48.2857" height="48.2857" stroke="white" stroke-opacity="0.06" stroke-width="0.965714"/>
<rect x="677" y="624" width="48.2857" height="48.2857" stroke="white" stroke-opacity="0.06" stroke-width="0.965714"/>
<rect x="725.286" y="624" width="48.2857" height="48.2857" stroke="white" stroke-opacity="0.06" stroke-width="0.965714"/>
<rect x="773.571" y="624" width="48.2857" height="48.2857" stroke="white" stroke-opacity="0.06" stroke-width="0.965714"/>
<rect x="821.857" y="624" width="48.2857" height="48.2857" stroke="white" stroke-opacity="0.06" stroke-width="0.965714"/>
<rect x="870.143" y="624" width="48.2857" height="48.2857" stroke="white" stroke-opacity="0.06" stroke-width="0.965714"/>
<rect x="918.429" y="624" width="48.2857" height="48.2857" stroke="white" stroke-opacity="0.06" stroke-width="0.965714"/>
<rect x="966.714" y="624" width="48.2857" height="48.2857" stroke="white" stroke-opacity="0.06" stroke-width="0.965714"/>
</svg>
