<svg width="1169" height="676" viewBox="0 0 1169 676" fill="none" xmlns="http://www.w3.org/2000/svg">
<g filter="url(#filter0_f_2006_458)">
<ellipse cx="520" cy="753" rx="120" ry="114" fill="white"/>
</g>
<g filter="url(#filter1_f_2006_458)">
<ellipse cx="902" cy="325" rx="213" ry="202" fill="white"/>
</g>
<rect x="23" width="48.2857" height="48.2857" stroke="white" stroke-opacity="0.06" stroke-width="0.965714"/>
<rect x="71.2858" width="48.2857" height="48.2857" stroke="white" stroke-opacity="0.06" stroke-width="0.965714"/>
<rect x="119.571" width="48.2857" height="48.2857" stroke="white" stroke-opacity="0.06" stroke-width="0.965714"/>
<rect x="167.857" width="48.2857" height="48.2857" stroke="white" stroke-opacity="0.06" stroke-width="0.965714"/>
<rect x="216.143" width="48.2857" height="48.2857" stroke="white" stroke-opacity="0.06" stroke-width="0.965714"/>
<rect x="264.429" width="48.2857" height="48.2857" stroke="white" stroke-opacity="0.06" stroke-width="0.965714"/>
<rect x="312.714" width="48.2857" height="48.2857" stroke="white" stroke-opacity="0.06" stroke-width="0.965714"/>
<rect x="361" width="48.2857" height="48.2857" stroke="white" stroke-opacity="0.06" stroke-width="0.965714"/>
<rect x="409.286" width="48.2857" height="48.2857" stroke="white" stroke-opacity="0.06" stroke-width="0.965714"/>
<rect x="457.572" width="48.2857" height="48.2857" stroke="white" stroke-opacity="0.06" stroke-width="0.965714"/>
<rect x="505.857" width="48.2857" height="48.2857" stroke="white" stroke-opacity="0.06" stroke-width="0.965714"/>
<rect x="554.143" width="48.2857" height="48.2857" stroke="white" stroke-opacity="0.06" stroke-width="0.965714"/>
<rect x="602.429" width="48.2857" height="48.2857" stroke="white" stroke-opacity="0.06" stroke-width="0.965714"/>
<rect x="650.714" width="48.2857" height="48.2857" stroke="white" stroke-opacity="0.06" stroke-width="0.965714"/>
<rect x="699" width="48.2857" height="48.2857" stroke="white" stroke-opacity="0.06" stroke-width="0.965714"/>
<rect x="747.286" width="48.2857" height="48.2857" stroke="white" stroke-opacity="0.06" stroke-width="0.965714"/>
<rect x="795.571" width="48.2857" height="48.2857" stroke="white" stroke-opacity="0.06" stroke-width="0.965714"/>
<rect x="843.857" width="48.2857" height="48.2857" stroke="white" stroke-opacity="0.06" stroke-width="0.965714"/>
<rect x="892.143" width="48.2857" height="48.2857" stroke="white" stroke-opacity="0.06" stroke-width="0.965714"/>
<rect x="940.429" width="48.2857" height="48.2857" stroke="white" stroke-opacity="0.06" stroke-width="0.965714"/>
<rect x="988.714" width="48.2857" height="48.2857" stroke="white" stroke-opacity="0.06" stroke-width="0.965714"/>
<rect x="23" y="52" width="48.2857" height="48.2857" stroke="white" stroke-opacity="0.06" stroke-width="0.965714"/>
<rect x="71.2858" y="52" width="48.2857" height="48.2857" stroke="white" stroke-opacity="0.06" stroke-width="0.965714"/>
<rect x="119.571" y="52" width="48.2857" height="48.2857" fill="white" fill-opacity="0.05" stroke="white" stroke-opacity="0.06" stroke-width="0.965714"/>
<rect x="167.857" y="52" width="48.2857" height="48.2857" stroke="white" stroke-opacity="0.06" stroke-width="0.965714"/>
<rect x="216.143" y="52" width="48.2857" height="48.2857" stroke="white" stroke-opacity="0.06" stroke-width="0.965714"/>
<rect x="264.429" y="52" width="48.2857" height="48.2857" stroke="white" stroke-opacity="0.06" stroke-width="0.965714"/>
<rect x="312.714" y="52" width="48.2857" height="48.2857" stroke="white" stroke-opacity="0.06" stroke-width="0.965714"/>
<rect x="361" y="52" width="48.2857" height="48.2857" stroke="white" stroke-opacity="0.06" stroke-width="0.965714"/>
<rect x="409.286" y="52" width="48.2857" height="48.2857" stroke="white" stroke-opacity="0.06" stroke-width="0.965714"/>
<rect x="457.572" y="52" width="48.2857" height="48.2857" fill="white" fill-opacity="0.05" stroke="white" stroke-opacity="0.06" stroke-width="0.965714"/>
<rect x="505.857" y="52" width="48.2857" height="48.2857" stroke="white" stroke-opacity="0.06" stroke-width="0.965714"/>
<rect x="554.143" y="52" width="48.2857" height="48.2857" stroke="white" stroke-opacity="0.06" stroke-width="0.965714"/>
<rect x="602.429" y="52" width="48.2857" height="48.2857" stroke="white" stroke-opacity="0.06" stroke-width="0.965714"/>
<rect x="650.714" y="52" width="48.2857" height="48.2857" stroke="white" stroke-opacity="0.06" stroke-width="0.965714"/>
<rect x="699" y="52" width="48.2857" height="48.2857" stroke="white" stroke-opacity="0.06" stroke-width="0.965714"/>
<rect x="747.286" y="52" width="48.2857" height="48.2857" stroke="white" stroke-opacity="0.06" stroke-width="0.965714"/>
<rect x="795.571" y="52" width="48.2857" height="48.2857" stroke="white" stroke-opacity="0.06" stroke-width="0.965714"/>
<rect x="843.857" y="52" width="48.2857" height="48.2857" stroke="white" stroke-opacity="0.06" stroke-width="0.965714"/>
<rect x="892.143" y="52" width="48.2857" height="48.2857" stroke="white" stroke-opacity="0.06" stroke-width="0.965714"/>
<rect x="940.429" y="52" width="48.2857" height="48.2857" stroke="white" stroke-opacity="0.06" stroke-width="0.965714"/>
<rect x="988.714" y="52" width="48.2857" height="48.2857" stroke="white" stroke-opacity="0.06" stroke-width="0.965714"/>
<rect x="23" y="104" width="48.2857" height="48.2857" stroke="white" stroke-opacity="0.06" stroke-width="0.965714"/>
<rect x="71.2858" y="104" width="48.2857" height="48.2857" stroke="white" stroke-opacity="0.06" stroke-width="0.965714"/>
<rect x="119.571" y="104" width="48.2857" height="48.2857" stroke="white" stroke-opacity="0.06" stroke-width="0.965714"/>
<rect x="167.857" y="104" width="48.2857" height="48.2857" stroke="white" stroke-opacity="0.06" stroke-width="0.965714"/>
<rect x="216.143" y="104" width="48.2857" height="48.2857" stroke="white" stroke-opacity="0.06" stroke-width="0.965714"/>
<rect x="264.429" y="104" width="48.2857" height="48.2857" stroke="white" stroke-opacity="0.06" stroke-width="0.965714"/>
<rect x="312.714" y="104" width="48.2857" height="48.2857" stroke="white" stroke-opacity="0.06" stroke-width="0.965714"/>
<rect x="361" y="104" width="48.2857" height="48.2857" stroke="white" stroke-opacity="0.06" stroke-width="0.965714"/>
<rect x="409.286" y="104" width="48.2857" height="48.2857" stroke="white" stroke-opacity="0.06" stroke-width="0.965714"/>
<rect x="457.572" y="104" width="48.2857" height="48.2857" stroke="white" stroke-opacity="0.06" stroke-width="0.965714"/>
<rect x="505.857" y="104" width="48.2857" height="48.2857" stroke="white" stroke-opacity="0.06" stroke-width="0.965714"/>
<rect x="554.143" y="104" width="48.2857" height="48.2857" stroke="white" stroke-opacity="0.06" stroke-width="0.965714"/>
<rect x="602.429" y="104" width="48.2857" height="48.2857" stroke="white" stroke-opacity="0.06" stroke-width="0.965714"/>
<rect x="650.714" y="104" width="48.2857" height="48.2857" stroke="white" stroke-opacity="0.06" stroke-width="0.965714"/>
<rect x="699" y="104" width="48.2857" height="48.2857" stroke="white" stroke-opacity="0.06" stroke-width="0.965714"/>
<rect x="747.286" y="104" width="48.2857" height="48.2857" stroke="white" stroke-opacity="0.06" stroke-width="0.965714"/>
<rect x="795.571" y="104" width="48.2857" height="48.2857" fill="white" fill-opacity="0.05" stroke="white" stroke-opacity="0.06" stroke-width="0.965714"/>
<rect x="843.857" y="104" width="48.2857" height="48.2857" stroke="white" stroke-opacity="0.06" stroke-width="0.965714"/>
<rect x="892.143" y="104" width="48.2857" height="48.2857" stroke="white" stroke-opacity="0.06" stroke-width="0.965714"/>
<rect x="940.429" y="104" width="48.2857" height="48.2857" stroke="white" stroke-opacity="0.06" stroke-width="0.965714"/>
<rect x="988.714" y="104" width="48.2857" height="48.2857" stroke="white" stroke-opacity="0.06" stroke-width="0.965714"/>
<rect x="23" y="156" width="48.2857" height="48.2857" stroke="white" stroke-opacity="0.06" stroke-width="0.965714"/>
<rect x="71.2858" y="156" width="48.2857" height="48.2857" stroke="white" stroke-opacity="0.06" stroke-width="0.965714"/>
<rect x="119.571" y="156" width="48.2857" height="48.2857" stroke="white" stroke-opacity="0.06" stroke-width="0.965714"/>
<rect x="167.857" y="156" width="48.2857" height="48.2857" stroke="white" stroke-opacity="0.06" stroke-width="0.965714"/>
<rect x="216.143" y="156" width="48.2857" height="48.2857" stroke="white" stroke-opacity="0.06" stroke-width="0.965714"/>
<rect x="264.429" y="156" width="48.2857" height="48.2857" stroke="white" stroke-opacity="0.06" stroke-width="0.965714"/>
<rect x="312.714" y="156" width="48.2857" height="48.2857" stroke="white" stroke-opacity="0.06" stroke-width="0.965714"/>
<rect x="361" y="156" width="48.2857" height="48.2857" stroke="white" stroke-opacity="0.06" stroke-width="0.965714"/>
<rect x="409.286" y="156" width="48.2857" height="48.2857" stroke="white" stroke-opacity="0.06" stroke-width="0.965714"/>
<rect x="457.572" y="156" width="48.2857" height="48.2857" stroke="white" stroke-opacity="0.06" stroke-width="0.965714"/>
<rect x="505.857" y="156" width="48.2857" height="48.2857" stroke="white" stroke-opacity="0.06" stroke-width="0.965714"/>
<rect x="554.143" y="156" width="48.2857" height="48.2857" stroke="white" stroke-opacity="0.06" stroke-width="0.965714"/>
<rect x="602.429" y="156" width="48.2857" height="48.2857" stroke="white" stroke-opacity="0.06" stroke-width="0.965714"/>
<rect x="650.714" y="156" width="48.2857" height="48.2857" stroke="white" stroke-opacity="0.06" stroke-width="0.965714"/>
<rect x="699" y="156" width="48.2857" height="48.2857" stroke="white" stroke-opacity="0.06" stroke-width="0.965714"/>
<rect x="747.286" y="156" width="48.2857" height="48.2857" stroke="white" stroke-opacity="0.06" stroke-width="0.965714"/>
<rect x="795.571" y="156" width="48.2857" height="48.2857" stroke="white" stroke-opacity="0.06" stroke-width="0.965714"/>
<rect x="843.857" y="156" width="48.2857" height="48.2857" stroke="white" stroke-opacity="0.06" stroke-width="0.965714"/>
<rect x="892.143" y="156" width="48.2857" height="48.2857" stroke="white" stroke-opacity="0.06" stroke-width="0.965714"/>
<rect x="940.429" y="156" width="48.2857" height="48.2857" stroke="white" stroke-opacity="0.06" stroke-width="0.965714"/>
<rect x="988.714" y="156" width="48.2857" height="48.2857" stroke="white" stroke-opacity="0.06" stroke-width="0.965714"/>
<rect x="23" y="208" width="48.2857" height="48.2857" stroke="white" stroke-opacity="0.06" stroke-width="0.965714"/>
<rect x="71.2858" y="208" width="48.2857" height="48.2857" stroke="white" stroke-opacity="0.06" stroke-width="0.965714"/>
<rect x="119.571" y="208" width="48.2857" height="48.2857" stroke="white" stroke-opacity="0.06" stroke-width="0.965714"/>
<rect x="167.857" y="208" width="48.2857" height="48.2857" fill="white" fill-opacity="0.05" stroke="white" stroke-opacity="0.06" stroke-width="0.965714"/>
<rect x="216.143" y="208" width="48.2857" height="48.2857" stroke="white" stroke-opacity="0.06" stroke-width="0.965714"/>
<rect x="264.429" y="208" width="48.2857" height="48.2857" stroke="white" stroke-opacity="0.06" stroke-width="0.965714"/>
<rect x="312.714" y="208" width="48.2857" height="48.2857" stroke="white" stroke-opacity="0.06" stroke-width="0.965714"/>
<rect x="361" y="208" width="48.2857" height="48.2857" stroke="white" stroke-opacity="0.06" stroke-width="0.965714"/>
<rect x="409.286" y="208" width="48.2857" height="48.2857" stroke="white" stroke-opacity="0.06" stroke-width="0.965714"/>
<rect x="457.572" y="208" width="48.2857" height="48.2857" stroke="white" stroke-opacity="0.06" stroke-width="0.965714"/>
<rect x="505.857" y="208" width="48.2857" height="48.2857" stroke="white" stroke-opacity="0.06" stroke-width="0.965714"/>
<rect x="554.143" y="208" width="48.2857" height="48.2857" stroke="white" stroke-opacity="0.06" stroke-width="0.965714"/>
<rect x="602.429" y="208" width="48.2857" height="48.2857" fill="white" fill-opacity="0.05" stroke="white" stroke-opacity="0.06" stroke-width="0.965714"/>
<rect x="650.714" y="208" width="48.2857" height="48.2857" stroke="white" stroke-opacity="0.06" stroke-width="0.965714"/>
<rect x="699" y="208" width="48.2857" height="48.2857" stroke="white" stroke-opacity="0.06" stroke-width="0.965714"/>
<rect x="747.286" y="208" width="48.2857" height="48.2857" stroke="white" stroke-opacity="0.06" stroke-width="0.965714"/>
<rect x="795.571" y="208" width="48.2857" height="48.2857" stroke="white" stroke-opacity="0.06" stroke-width="0.965714"/>
<rect x="843.857" y="208" width="48.2857" height="48.2857" stroke="white" stroke-opacity="0.06" stroke-width="0.965714"/>
<rect x="892.143" y="208" width="48.2857" height="48.2857" stroke="white" stroke-opacity="0.06" stroke-width="0.965714"/>
<rect x="940.429" y="208" width="48.2857" height="48.2857" stroke="white" stroke-opacity="0.06" stroke-width="0.965714"/>
<rect x="988.714" y="208" width="48.2857" height="48.2857" stroke="white" stroke-opacity="0.06" stroke-width="0.965714"/>
<rect x="23" y="260" width="48.2857" height="48.2857" stroke="white" stroke-opacity="0.06" stroke-width="0.965714"/>
<rect x="71.2858" y="260" width="48.2857" height="48.2857" stroke="white" stroke-opacity="0.06" stroke-width="0.965714"/>
<rect x="119.571" y="260" width="48.2857" height="48.2857" stroke="white" stroke-opacity="0.06" stroke-width="0.965714"/>
<rect x="167.857" y="260" width="48.2857" height="48.2857" stroke="white" stroke-opacity="0.06" stroke-width="0.965714"/>
<rect x="216.143" y="260" width="48.2857" height="48.2857" stroke="white" stroke-opacity="0.06" stroke-width="0.965714"/>
<rect x="264.429" y="260" width="48.2857" height="48.2857" stroke="white" stroke-opacity="0.06" stroke-width="0.965714"/>
<rect x="312.714" y="260" width="48.2857" height="48.2857" stroke="white" stroke-opacity="0.06" stroke-width="0.965714"/>
<rect x="361" y="260" width="48.2857" height="48.2857" stroke="white" stroke-opacity="0.06" stroke-width="0.965714"/>
<rect x="409.286" y="260" width="48.2857" height="48.2857" stroke="white" stroke-opacity="0.06" stroke-width="0.965714"/>
<rect x="457.572" y="260" width="48.2857" height="48.2857" stroke="white" stroke-opacity="0.06" stroke-width="0.965714"/>
<rect x="505.857" y="260" width="48.2857" height="48.2857" stroke="white" stroke-opacity="0.06" stroke-width="0.965714"/>
<rect x="554.143" y="260" width="48.2857" height="48.2857" stroke="white" stroke-opacity="0.06" stroke-width="0.965714"/>
<rect x="602.429" y="260" width="48.2857" height="48.2857" stroke="white" stroke-opacity="0.06" stroke-width="0.965714"/>
<rect x="650.714" y="260" width="48.2857" height="48.2857" stroke="white" stroke-opacity="0.06" stroke-width="0.965714"/>
<rect x="699" y="260" width="48.2857" height="48.2857" stroke="white" stroke-opacity="0.06" stroke-width="0.965714"/>
<rect x="747.286" y="260" width="48.2857" height="48.2857" stroke="white" stroke-opacity="0.06" stroke-width="0.965714"/>
<rect x="795.571" y="260" width="48.2857" height="48.2857" stroke="white" stroke-opacity="0.06" stroke-width="0.965714"/>
<rect x="843.857" y="260" width="48.2857" height="48.2857" stroke="white" stroke-opacity="0.06" stroke-width="0.965714"/>
<rect x="892.143" y="260" width="48.2857" height="48.2857" fill="white" fill-opacity="0.05" stroke="white" stroke-opacity="0.06" stroke-width="0.965714"/>
<rect x="940.429" y="260" width="48.2857" height="48.2857" stroke="white" stroke-opacity="0.06" stroke-width="0.965714"/>
<rect x="988.714" y="260" width="48.2857" height="48.2857" stroke="white" stroke-opacity="0.06" stroke-width="0.965714"/>
<rect x="23" y="312" width="48.2857" height="48.2857" stroke="white" stroke-opacity="0.06" stroke-width="0.965714"/>
<rect x="71.2858" y="312" width="48.2857" height="48.2857" stroke="white" stroke-opacity="0.06" stroke-width="0.965714"/>
<rect x="119.571" y="312" width="48.2857" height="48.2857" stroke="white" stroke-opacity="0.06" stroke-width="0.965714"/>
<rect x="167.857" y="312" width="48.2857" height="48.2857" stroke="white" stroke-opacity="0.06" stroke-width="0.965714"/>
<rect x="216.143" y="312" width="48.2857" height="48.2857" stroke="white" stroke-opacity="0.06" stroke-width="0.965714"/>
<rect x="264.429" y="312" width="48.2857" height="48.2857" stroke="white" stroke-opacity="0.06" stroke-width="0.965714"/>
<rect x="312.714" y="312" width="48.2857" height="48.2857" stroke="white" stroke-opacity="0.06" stroke-width="0.965714"/>
<rect x="361" y="312" width="48.2857" height="48.2857" stroke="white" stroke-opacity="0.06" stroke-width="0.965714"/>
<rect x="409.286" y="312" width="48.2857" height="48.2857" stroke="white" stroke-opacity="0.06" stroke-width="0.965714"/>
<rect x="457.572" y="312" width="48.2857" height="48.2857" stroke="white" stroke-opacity="0.06" stroke-width="0.965714"/>
<rect x="505.857" y="312" width="48.2857" height="48.2857" stroke="white" stroke-opacity="0.06" stroke-width="0.965714"/>
<rect x="554.143" y="312" width="48.2857" height="48.2857" stroke="white" stroke-opacity="0.06" stroke-width="0.965714"/>
<rect x="602.429" y="312" width="48.2857" height="48.2857" stroke="white" stroke-opacity="0.06" stroke-width="0.965714"/>
<rect x="650.714" y="312" width="48.2857" height="48.2857" stroke="white" stroke-opacity="0.06" stroke-width="0.965714"/>
<rect x="699" y="312" width="48.2857" height="48.2857" stroke="white" stroke-opacity="0.06" stroke-width="0.965714"/>
<rect x="747.286" y="312" width="48.2857" height="48.2857" stroke="white" stroke-opacity="0.06" stroke-width="0.965714"/>
<rect x="795.571" y="312" width="48.2857" height="48.2857" stroke="white" stroke-opacity="0.06" stroke-width="0.965714"/>
<rect x="843.857" y="312" width="48.2857" height="48.2857" stroke="white" stroke-opacity="0.06" stroke-width="0.965714"/>
<rect x="892.143" y="312" width="48.2857" height="48.2857" stroke="white" stroke-opacity="0.06" stroke-width="0.965714"/>
<rect x="940.429" y="312" width="48.2857" height="48.2857" stroke="white" stroke-opacity="0.06" stroke-width="0.965714"/>
<rect x="988.714" y="312" width="48.2857" height="48.2857" stroke="white" stroke-opacity="0.06" stroke-width="0.965714"/>
<rect x="23" y="364" width="48.2857" height="48.2857" stroke="white" stroke-opacity="0.06" stroke-width="0.965714"/>
<rect x="71.2858" y="364" width="48.2857" height="48.2857" stroke="white" stroke-opacity="0.06" stroke-width="0.965714"/>
<rect x="119.571" y="364" width="48.2857" height="48.2857" stroke="white" stroke-opacity="0.06" stroke-width="0.965714"/>
<rect x="167.857" y="364" width="48.2857" height="48.2857" stroke="white" stroke-opacity="0.06" stroke-width="0.965714"/>
<rect x="216.143" y="364" width="48.2857" height="48.2857" stroke="white" stroke-opacity="0.06" stroke-width="0.965714"/>
<rect x="264.429" y="364" width="48.2857" height="48.2857" stroke="white" stroke-opacity="0.06" stroke-width="0.965714"/>
<rect x="312.714" y="364" width="48.2857" height="48.2857" stroke="white" stroke-opacity="0.06" stroke-width="0.965714"/>
<rect x="361" y="364" width="48.2857" height="48.2857" stroke="white" stroke-opacity="0.06" stroke-width="0.965714"/>
<rect x="409.286" y="364" width="48.2857" height="48.2857" fill="white" fill-opacity="0.05" stroke="white" stroke-opacity="0.06" stroke-width="0.965714"/>
<rect x="457.572" y="364" width="48.2857" height="48.2857" stroke="white" stroke-opacity="0.06" stroke-width="0.965714"/>
<rect x="505.857" y="364" width="48.2857" height="48.2857" stroke="white" stroke-opacity="0.06" stroke-width="0.965714"/>
<rect x="554.143" y="364" width="48.2857" height="48.2857" stroke="white" stroke-opacity="0.06" stroke-width="0.965714"/>
<rect x="602.429" y="364" width="48.2857" height="48.2857" stroke="white" stroke-opacity="0.06" stroke-width="0.965714"/>
<rect x="650.714" y="364" width="48.2857" height="48.2857" stroke="white" stroke-opacity="0.06" stroke-width="0.965714"/>
<rect x="699" y="364" width="48.2857" height="48.2857" stroke="white" stroke-opacity="0.06" stroke-width="0.965714"/>
<rect x="747.286" y="364" width="48.2857" height="48.2857" stroke="white" stroke-opacity="0.06" stroke-width="0.965714"/>
<rect x="795.571" y="364" width="48.2857" height="48.2857" stroke="white" stroke-opacity="0.06" stroke-width="0.965714"/>
<rect x="843.857" y="364" width="48.2857" height="48.2857" stroke="white" stroke-opacity="0.06" stroke-width="0.965714"/>
<rect x="892.143" y="364" width="48.2857" height="48.2857" stroke="white" stroke-opacity="0.06" stroke-width="0.965714"/>
<rect x="940.429" y="364" width="48.2857" height="48.2857" stroke="white" stroke-opacity="0.06" stroke-width="0.965714"/>
<rect x="988.714" y="364" width="48.2857" height="48.2857" stroke="white" stroke-opacity="0.06" stroke-width="0.965714"/>
<rect x="23" y="416" width="48.2857" height="48.2857" stroke="white" stroke-opacity="0.06" stroke-width="0.965714"/>
<rect x="71.2858" y="416" width="48.2857" height="48.2857" stroke="white" stroke-opacity="0.06" stroke-width="0.965714"/>
<rect x="119.571" y="416" width="48.2857" height="48.2857" stroke="white" stroke-opacity="0.06" stroke-width="0.965714"/>
<rect x="167.857" y="416" width="48.2857" height="48.2857" stroke="white" stroke-opacity="0.06" stroke-width="0.965714"/>
<rect x="216.143" y="416" width="48.2857" height="48.2857" fill="white" fill-opacity="0.05" stroke="white" stroke-opacity="0.06" stroke-width="0.965714"/>
<rect x="264.429" y="416" width="48.2857" height="48.2857" stroke="white" stroke-opacity="0.06" stroke-width="0.965714"/>
<rect x="312.714" y="416" width="48.2857" height="48.2857" stroke="white" stroke-opacity="0.06" stroke-width="0.965714"/>
<rect x="361" y="416" width="48.2857" height="48.2857" stroke="white" stroke-opacity="0.06" stroke-width="0.965714"/>
<rect x="409.286" y="416" width="48.2857" height="48.2857" stroke="white" stroke-opacity="0.06" stroke-width="0.965714"/>
<rect x="457.572" y="416" width="48.2857" height="48.2857" stroke="white" stroke-opacity="0.06" stroke-width="0.965714"/>
<rect x="505.857" y="416" width="48.2857" height="48.2857" stroke="white" stroke-opacity="0.06" stroke-width="0.965714"/>
<rect x="554.143" y="416" width="48.2857" height="48.2857" stroke="white" stroke-opacity="0.06" stroke-width="0.965714"/>
<rect x="602.429" y="416" width="48.2857" height="48.2857" stroke="white" stroke-opacity="0.06" stroke-width="0.965714"/>
<rect x="650.714" y="416" width="48.2857" height="48.2857" stroke="white" stroke-opacity="0.06" stroke-width="0.965714"/>
<rect x="699" y="416" width="48.2857" height="48.2857" stroke="white" stroke-opacity="0.06" stroke-width="0.965714"/>
<rect x="747.286" y="416" width="48.2857" height="48.2857" stroke="white" stroke-opacity="0.06" stroke-width="0.965714"/>
<rect x="795.571" y="416" width="48.2857" height="48.2857" stroke="white" stroke-opacity="0.06" stroke-width="0.965714"/>
<rect x="843.857" y="416" width="48.2857" height="48.2857" stroke="white" stroke-opacity="0.06" stroke-width="0.965714"/>
<rect x="892.143" y="416" width="48.2857" height="48.2857" stroke="white" stroke-opacity="0.06" stroke-width="0.965714"/>
<rect x="940.429" y="416" width="48.2857" height="48.2857" stroke="white" stroke-opacity="0.06" stroke-width="0.965714"/>
<rect x="988.714" y="416" width="48.2857" height="48.2857" stroke="white" stroke-opacity="0.06" stroke-width="0.965714"/>
<rect x="23" y="468" width="48.2857" height="48.2857" stroke="white" stroke-opacity="0.06" stroke-width="0.965714"/>
<rect x="71.2858" y="468" width="48.2857" height="48.2857" stroke="white" stroke-opacity="0.06" stroke-width="0.965714"/>
<rect x="119.571" y="468" width="48.2857" height="48.2857" stroke="white" stroke-opacity="0.06" stroke-width="0.965714"/>
<rect x="167.857" y="468" width="48.2857" height="48.2857" stroke="white" stroke-opacity="0.06" stroke-width="0.965714"/>
<rect x="216.143" y="468" width="48.2857" height="48.2857" stroke="white" stroke-opacity="0.06" stroke-width="0.965714"/>
<rect x="264.429" y="468" width="48.2857" height="48.2857" stroke="white" stroke-opacity="0.06" stroke-width="0.965714"/>
<rect x="312.714" y="468" width="48.2857" height="48.2857" stroke="white" stroke-opacity="0.06" stroke-width="0.965714"/>
<rect x="361" y="468" width="48.2857" height="48.2857" stroke="white" stroke-opacity="0.06" stroke-width="0.965714"/>
<rect x="409.286" y="468" width="48.2857" height="48.2857" stroke="white" stroke-opacity="0.06" stroke-width="0.965714"/>
<rect x="457.572" y="468" width="48.2857" height="48.2857" stroke="white" stroke-opacity="0.06" stroke-width="0.965714"/>
<rect x="505.857" y="468" width="48.2857" height="48.2857" stroke="white" stroke-opacity="0.06" stroke-width="0.965714"/>
<rect x="554.143" y="468" width="48.2857" height="48.2857" stroke="white" stroke-opacity="0.06" stroke-width="0.965714"/>
<rect x="602.429" y="468" width="48.2857" height="48.2857" stroke="white" stroke-opacity="0.06" stroke-width="0.965714"/>
<rect x="650.714" y="468" width="48.2857" height="48.2857" stroke="white" stroke-opacity="0.06" stroke-width="0.965714"/>
<rect x="699" y="468" width="48.2857" height="48.2857" stroke="white" stroke-opacity="0.06" stroke-width="0.965714"/>
<rect x="747.286" y="468" width="48.2857" height="48.2857" stroke="white" stroke-opacity="0.06" stroke-width="0.965714"/>
<rect x="795.571" y="468" width="48.2857" height="48.2857" stroke="white" stroke-opacity="0.06" stroke-width="0.965714"/>
<rect x="843.857" y="468" width="48.2857" height="48.2857" stroke="white" stroke-opacity="0.06" stroke-width="0.965714"/>
<rect x="892.143" y="468" width="48.2857" height="48.2857" stroke="white" stroke-opacity="0.06" stroke-width="0.965714"/>
<rect x="940.429" y="468" width="48.2857" height="48.2857" stroke="white" stroke-opacity="0.06" stroke-width="0.965714"/>
<rect x="988.714" y="468" width="48.2857" height="48.2857" stroke="white" stroke-opacity="0.06" stroke-width="0.965714"/>
<rect x="23" y="520" width="48.2857" height="48.2857" stroke="white" stroke-opacity="0.06" stroke-width="0.965714"/>
<rect x="71.2858" y="520" width="48.2857" height="48.2857" stroke="white" stroke-opacity="0.06" stroke-width="0.965714"/>
<rect x="119.571" y="520" width="48.2857" height="48.2857" stroke="white" stroke-opacity="0.06" stroke-width="0.965714"/>
<rect x="167.857" y="520" width="48.2857" height="48.2857" stroke="white" stroke-opacity="0.06" stroke-width="0.965714"/>
<rect x="216.143" y="520" width="48.2857" height="48.2857" stroke="white" stroke-opacity="0.06" stroke-width="0.965714"/>
<rect x="264.429" y="520" width="48.2857" height="48.2857" stroke="white" stroke-opacity="0.06" stroke-width="0.965714"/>
<rect x="312.714" y="520" width="48.2857" height="48.2857" stroke="white" stroke-opacity="0.06" stroke-width="0.965714"/>
<rect x="361" y="520" width="48.2857" height="48.2857" stroke="white" stroke-opacity="0.06" stroke-width="0.965714"/>
<rect x="409.286" y="520" width="48.2857" height="48.2857" stroke="white" stroke-opacity="0.06" stroke-width="0.965714"/>
<rect x="457.572" y="520" width="48.2857" height="48.2857" stroke="white" stroke-opacity="0.06" stroke-width="0.965714"/>
<rect x="505.857" y="520" width="48.2857" height="48.2857" stroke="white" stroke-opacity="0.06" stroke-width="0.965714"/>
<rect x="554.143" y="520" width="48.2857" height="48.2857" stroke="white" stroke-opacity="0.06" stroke-width="0.965714"/>
<rect x="602.429" y="520" width="48.2857" height="48.2857" stroke="white" stroke-opacity="0.06" stroke-width="0.965714"/>
<rect x="650.714" y="520" width="48.2857" height="48.2857" stroke="white" stroke-opacity="0.06" stroke-width="0.965714"/>
<rect x="699" y="520" width="48.2857" height="48.2857" stroke="white" stroke-opacity="0.06" stroke-width="0.965714"/>
<rect x="747.286" y="520" width="48.2857" height="48.2857" stroke="white" stroke-opacity="0.06" stroke-width="0.965714"/>
<rect x="795.571" y="520" width="48.2857" height="48.2857" stroke="white" stroke-opacity="0.06" stroke-width="0.965714"/>
<rect x="843.857" y="520" width="48.2857" height="48.2857" stroke="white" stroke-opacity="0.06" stroke-width="0.965714"/>
<rect x="892.143" y="520" width="48.2857" height="48.2857" stroke="white" stroke-opacity="0.06" stroke-width="0.965714"/>
<rect x="940.429" y="520" width="48.2857" height="48.2857" stroke="white" stroke-opacity="0.06" stroke-width="0.965714"/>
<rect x="988.714" y="520" width="48.2857" height="48.2857" stroke="white" stroke-opacity="0.06" stroke-width="0.965714"/>
<rect x="23" y="572" width="48.2857" height="48.2857" stroke="white" stroke-opacity="0.06" stroke-width="0.965714"/>
<rect x="71.2858" y="572" width="48.2857" height="48.2857" stroke="white" stroke-opacity="0.06" stroke-width="0.965714"/>
<rect x="119.571" y="572" width="48.2857" height="48.2857" stroke="white" stroke-opacity="0.06" stroke-width="0.965714"/>
<rect x="167.857" y="572" width="48.2857" height="48.2857" stroke="white" stroke-opacity="0.06" stroke-width="0.965714"/>
<rect x="216.143" y="572" width="48.2857" height="48.2857" stroke="white" stroke-opacity="0.06" stroke-width="0.965714"/>
<rect x="264.429" y="572" width="48.2857" height="48.2857" stroke="white" stroke-opacity="0.06" stroke-width="0.965714"/>
<rect x="312.714" y="572" width="48.2857" height="48.2857" stroke="white" stroke-opacity="0.06" stroke-width="0.965714"/>
<rect x="361" y="572" width="48.2857" height="48.2857" stroke="white" stroke-opacity="0.06" stroke-width="0.965714"/>
<rect x="409.286" y="572" width="48.2857" height="48.2857" stroke="white" stroke-opacity="0.06" stroke-width="0.965714"/>
<rect x="457.572" y="572" width="48.2857" height="48.2857" stroke="white" stroke-opacity="0.06" stroke-width="0.965714"/>
<rect x="505.857" y="572" width="48.2857" height="48.2857" stroke="white" stroke-opacity="0.06" stroke-width="0.965714"/>
<rect x="554.143" y="572" width="48.2857" height="48.2857" stroke="white" stroke-opacity="0.06" stroke-width="0.965714"/>
<rect x="602.429" y="572" width="48.2857" height="48.2857" stroke="white" stroke-opacity="0.06" stroke-width="0.965714"/>
<rect x="650.714" y="572" width="48.2857" height="48.2857" stroke="white" stroke-opacity="0.06" stroke-width="0.965714"/>
<rect x="699" y="572" width="48.2857" height="48.2857" stroke="white" stroke-opacity="0.06" stroke-width="0.965714"/>
<rect x="747.286" y="572" width="48.2857" height="48.2857" stroke="white" stroke-opacity="0.06" stroke-width="0.965714"/>
<rect x="795.571" y="572" width="48.2857" height="48.2857" stroke="white" stroke-opacity="0.06" stroke-width="0.965714"/>
<rect x="843.857" y="572" width="48.2857" height="48.2857" stroke="white" stroke-opacity="0.06" stroke-width="0.965714"/>
<rect x="892.143" y="572" width="48.2857" height="48.2857" stroke="white" stroke-opacity="0.06" stroke-width="0.965714"/>
<rect x="940.429" y="572" width="48.2857" height="48.2857" stroke="white" stroke-opacity="0.06" stroke-width="0.965714"/>
<rect x="988.714" y="572" width="48.2857" height="48.2857" stroke="white" stroke-opacity="0.06" stroke-width="0.965714"/>
<rect x="23" y="624" width="48.2857" height="48.2857" stroke="white" stroke-opacity="0.06" stroke-width="0.965714"/>
<rect x="71.2858" y="624" width="48.2857" height="48.2857" stroke="white" stroke-opacity="0.06" stroke-width="0.965714"/>
<rect x="119.571" y="624" width="48.2857" height="48.2857" stroke="white" stroke-opacity="0.06" stroke-width="0.965714"/>
<rect x="167.857" y="624" width="48.2857" height="48.2857" stroke="white" stroke-opacity="0.06" stroke-width="0.965714"/>
<rect x="216.143" y="624" width="48.2857" height="48.2857" stroke="white" stroke-opacity="0.06" stroke-width="0.965714"/>
<rect x="264.429" y="624" width="48.2857" height="48.2857" stroke="white" stroke-opacity="0.06" stroke-width="0.965714"/>
<rect x="312.714" y="624" width="48.2857" height="48.2857" stroke="white" stroke-opacity="0.06" stroke-width="0.965714"/>
<rect x="361" y="624" width="48.2857" height="48.2857" stroke="white" stroke-opacity="0.06" stroke-width="0.965714"/>
<rect x="409.286" y="624" width="48.2857" height="48.2857" stroke="white" stroke-opacity="0.06" stroke-width="0.965714"/>
<rect x="457.572" y="624" width="48.2857" height="48.2857" stroke="white" stroke-opacity="0.06" stroke-width="0.965714"/>
<rect x="505.857" y="624" width="48.2857" height="48.2857" stroke="white" stroke-opacity="0.06" stroke-width="0.965714"/>
<rect x="554.143" y="624" width="48.2857" height="48.2857" stroke="white" stroke-opacity="0.06" stroke-width="0.965714"/>
<rect x="602.429" y="624" width="48.2857" height="48.2857" stroke="white" stroke-opacity="0.06" stroke-width="0.965714"/>
<rect x="650.714" y="624" width="48.2857" height="48.2857" stroke="white" stroke-opacity="0.06" stroke-width="0.965714"/>
<rect x="699" y="624" width="48.2857" height="48.2857" stroke="white" stroke-opacity="0.06" stroke-width="0.965714"/>
<rect x="747.286" y="624" width="48.2857" height="48.2857" stroke="white" stroke-opacity="0.06" stroke-width="0.965714"/>
<rect x="795.571" y="624" width="48.2857" height="48.2857" stroke="white" stroke-opacity="0.06" stroke-width="0.965714"/>
<rect x="843.857" y="624" width="48.2857" height="48.2857" stroke="white" stroke-opacity="0.06" stroke-width="0.965714"/>
<rect x="892.143" y="624" width="48.2857" height="48.2857" stroke="white" stroke-opacity="0.06" stroke-width="0.965714"/>
<rect x="940.429" y="624" width="48.2857" height="48.2857" stroke="white" stroke-opacity="0.06" stroke-width="0.965714"/>
<rect x="988.714" y="624" width="48.2857" height="48.2857" stroke="white" stroke-opacity="0.06" stroke-width="0.965714"/>
<defs>
<filter id="filter0_f_2006_458" x="0" y="239" width="1040" height="1028" filterUnits="userSpaceOnUse" color-interpolation-filters="sRGB">
<feFlood flood-opacity="0" result="BackgroundImageFix"/>
<feBlend mode="normal" in="SourceGraphic" in2="BackgroundImageFix" result="shape"/>
<feGaussianBlur stdDeviation="200" result="effect1_foregroundBlur_2006_458"/>
</filter>
<filter id="filter1_f_2006_458" x="189" y="-377" width="1426" height="1404" filterUnits="userSpaceOnUse" color-interpolation-filters="sRGB">
<feFlood flood-opacity="0" result="BackgroundImageFix"/>
<feBlend mode="normal" in="SourceGraphic" in2="BackgroundImageFix" result="shape"/>
<feGaussianBlur stdDeviation="250" result="effect1_foregroundBlur_2006_458"/>
</filter>
</defs>
</svg>
